<svg xmlns="http://www.w3.org/2000/svg" width="512" height="512"><path fill="#F5A311" d="M406 71c.56.45 1.11.91 1.69 1.37C420.67 83.04 432.78 94.62 443 108c.41.53.83 1.06 1.25 1.61C468.2 140.53 483.93 176.57 491 215c.16.85.32 1.71.49 2.58 10.91 59.76-4.8 123.26-38.91 173-5.74 8.22-11.98 15.88-18.58 23.42-1.19 1.44-2.38 2.87-3.56 4.31-.81.89-1.61 1.78-2.44 2.69h-2c-.27.64-.54 1.28-.81 1.94C424 425 424 425 421 426l-1 3c-2.47 2.55-5.27 4.74-8 7-.75.62-1.49 1.24-2.26 1.88-37.1 30.29-80.17 49.17-127.74 55.12-.76.1-1.52.19-2.31.29-61.09 6.96-123.73-12.77-171.6-50.75-5.24-4.3-10.21-8.84-15.09-13.54-.35-.33-.35-.33-2.1-2.02-43.94-42.44-71.95-100.91-73.33-162.51-.44-28.06 3.11-54.6 11.43-81.47.25-.81.5-1.62.76-2.45C40.64 146.19 60.32 116.02 85 90c.24-.25.24-.25 1.44-1.52C94.03 80.47 102.18 73.61 111 67c1.23-.94 2.46-1.88 3.7-2.82C136.98 47.35 162.18 34.78 189 27c.76-.23 1.51-.46 2.29-.7C264.74 3.86 347.09 22.95 406 71"/><path fill="#473428" d="M276.05 86.281c6.18.75 12.29.91 18.51.91h2.74c5.64-.05 11.11-.48 16.7-1.19-1.75 3.08-3.45 5.56-6 8 13.43 6.45 24.16 9.68 39 9-2.42 4.35-4.61 6.53-9 9h-3c10.48 10.71 21.27 21.64 37 22v2c-5.72 2.45-9.79 3.33-16 3 .39.53.77 1.07 1.17 1.62 5.01 7.17 8.9 14.56 9.83 23.38l-5-2-1 1c.32 1.67.66 3.33 1 5 .4 6.37.14 11.97-2 18l-2-4c-.12.99-.24 1.98-.37 3-.85 6.77-1.75 13.42-3.63 20l-3-2-6 21 4 1c5.06 6.93 4.59 14.72 4 23-2.44 12.9-9.45 26.3-17 37-.68.45-1.36.9-2.06 1.37-2.57 2.16-2.64 3.67-3.19 6.94-3.02 13.46-11.91 24.41-21.18 34.27-.79.84-1.57 1.68-2.38 2.54-.71.73-1.42 1.45-2.15 2.2-5 6.57-6.94 14.31-8.79 22.24-.22.91-.44 1.83-.67 2.77-.53 2.22-1.06 4.44-1.58 6.67.46.06.46.06 2.81.39 4.75.91 7.85 3.51 11.54 6.54 8.76 6.85 18.83 11.05 29.06 15.12 3.02 1.21 6.03 2.43 9.04 3.66 2.2.9 4.39 1.79 6.59 2.68 23.46 9.53 23.46 9.53 30.96 16.61.77.69 1.53 1.38 2.32 2.08 6.61 6.22 12.79 13.83 14.68 22.92.16.75.33 1.5.5 2.27.36 2.9.3 4.9-.5 7.73-3.07 3.79-6.94 6.37-11 9q-.99.645-2.01 1.32c-5.24 3.38-10.59 6.57-15.99 9.68-.7.41-1.41.81-2.13 1.23-26.75 15.32-57.42 23.96-87.87 27.77-.76.1-1.52.19-2.31.29-61.1 6.96-123.7-12.78-171.58-50.74-4.66-3.78-9.1-7.79-13.43-11.94-1.22-1.17-2.45-2.34-3.68-3.5-2.12-2-4.22-4.02-6.31-6.05-.68-.64-1.36-1.28-2.05-1.94-.62-.6-1.24-1.21-1.88-1.84-.56-.53-1.11-1.07-1.69-1.62-1.07-1.66-1.07-1.66-1.02-3.66 3.38-7.14 15.14-11.47 21.89-14.94 1.01-.52 2.02-1.04 3.06-1.58 5.88-3.01 11.8-5.76 17.94-8.23 8.36-3.39 16.49-7.22 24.58-11.19 1.43-.7 2.86-1.39 4.29-2.08 7.49-3.6 14.15-7.01 19.69-13.41 1.97-2.06 3.73-2.53 6.54-2.67.36.01.36.01 2.15.04l3.81.06c.99-1.87 1.97-3.75 2.94-5.63.54-1.04 1.09-2.08 1.65-3.16 2.45-5.57 2.57-11.1 2.58-17.11 0-.75 0-1.5.01-2.28 0-1.59.01-3.18.01-4.78 0-2.37.02-4.75.03-7.13.04-10.12-.7-19.91-2.22-29.91-.95.17-1.9.35-2.87.53-4.75.71-7.27-.87-11.13-3.53-7.82-6.35-13.02-14.39-18-23-.41-.69-.81-1.37-1.23-2.08-3.97-8.27-2.91-20.79.04-29.23 1.09-2.65 1.88-4.39 3.94-6.37 2.14-3.97.48-7.87-.56-12.07-.21-.89-.41-1.78-.62-2.69-.51-2.19-1.03-4.38-1.57-6.56l-2 4c-2.94-6.53-4.14-11.7-4.13-18.94v-3.59c.12-3.25.52-6.28 1.13-9.47l-5 5c-.88-11.68 4.55-20.63 11-30-2.16 0-4.22 1.9-6 3 2.73-10.34 8.34-17.72 17-24 2.32-1.24 4.52-2.12 7-3-5.25-3.18-10.01-3.66-16-4 3.34-3.57 5.27-4.87 10.25-5.25 4.33.29 6.88 1.36 10.75 3.25.22-.85.44-1.69.66-2.56 3.71-13.26 11.3-21.38 21.34-30.44l3-1c-2 6-2 6-2.8 8.3-.27.78-.54 1.57-.83 2.39-.26.74-.52 1.49-.78 2.26-.59 2.05-.59 2.05-.59 5.05.45-.62.89-1.23 1.36-1.86 6-8.03 6-8.03 10.64-10.14-.31.6-.62 1.19-.94 1.81-1.06 2.19-1.06 2.19-2.06 5.19l2.05-1.39c20.4-13.45 42.38-14.38 66-11.33"/><path fill="#F0E0C7" d="M176.5 361.563c.41.07.41.07 2.5.44l-2 2-3-1c.38 11.26 5.58 20.98 13.74 28.63 2.05 1.83 4.15 3.6 6.26 5.37.72.61 1.44 1.23 2.18 1.87 6.24 5.19 12.72 9.13 19.94 12.81 1.1.57 2.19 1.13 3.31 1.71 16.94 8.53 37.1 14.73 56.01 9.11 9.65-3.81 18.42-10.38 23.56-19.5 3.63-8.71 5.74-17.16 2.81-26.32-1.51-3.62-3.52-5.49-6.81-7.68l-2-2c7.21.18 11.21 5.21 16 10 2 .67 4 1.34 6 2 2.31 1.13 4.59 2.3 6.88 3.5 6.79 3.49 13.73 6.48 20.81 9.37 45.16 18.6 45.16 18.6 54.81 41.44 1.44 3.83 1.99 7.63 2.5 11.69-34.31 26.9-74.84 42.6-118 48-.76.09-1.52.19-2.31.29-61.1 6.96-123.68-12.79-171.58-50.74-10.03-8.12-19.06-17.37-28.11-26.55 5.18-13.56 33.4-21.35 46-27 4.06-1.81 8.12-3.59 12.19-5.37 6.47-2.86 12.67-6.11 18.81-9.63.38-.22.38-.22 2.29-1.3 3.68-2.19 6.71-4.58 9.83-7.52 2.79-2.53 3.51-3.14 7.38-3.62"/><path fill="#ECC18E" d="M248 147c2.16 1.95 3.2 3.83 4.54 6.41 3.52 6.24 9.27 11.13 15.46 14.59-.52-1.2-1.03-2.41-1.57-3.65-.66-1.57-1.33-3.15-1.99-4.73-.34-.79-.69-1.58-1.04-2.4l-.97-2.31c-.29-.7-.59-1.4-.9-2.12C261 151 261 151 262 149c.29.29.29.29 1.77 1.76C270.45 157.13 278.34 164 288 164c-.48-.52-.96-1.04-1.46-1.57-.32-.35-.32-.35-1.92-2.12l-1.89-2.07c-1.8-2.33-2.77-4.47-3.73-7.24.4.17.4.17 2.45 1.06.53.23.53.23 3.24 1.38 1.05.45 2.11.9 3.2 1.37 5.1 1.95 9.5 2.24 14.9 2.27 12.65.21 12.65.21 16.71 3.54 1.67 1.88 1.67 1.88 3.5 4.38.93 1.2 1.87 2.39 2.8 3.59 13.42 17.55 15.35 34.67 12.5 56.44-.92 6.18-2.01 12.32-3.11 18.47-.54 3.11-1.08 6.22-1.62 9.32-.35 2.05-.7 4.09-1.06 6.12-.89 5.1-1.68 10.18-2.3 15.31-.12 1.01-.25 2.01-.37 3.04-.23 1.9-.44 3.8-.63 5.69-.61 5.15-1.38 8.23-5.21 12.02-1 1-1 1-1.06 3.56L323 301l-2-1c-.45.82-.91 1.65-1.38 2.5-.53.82-1.07 1.65-1.62 2.5h-2c-.27.97-.54 1.94-.81 2.94-.39 1.01-.79 2.02-1.19 3.06l-3 1c-1.35-4.15-2.11-7.82-2.38-12.19-.29-3.2-.49-4.61-2.24-7.37-2.38-1.44-2.38-1.44-5.94-1.75-.57-.12-.57-.12-3.44-.69-2.22-3.85-3.34-7.62-4-12h-3c-.21-.51-.42-1.02-.63-1.55-2.89-6.82-6.55-13.11-10.37-19.45.36 4.22.72 8.15 2.06 12.19 1.03 3.08 1.09 5.58.94 8.81-5.67 2.83-10.7 3.63-17 4l1 3c2.78 1.37 5.63 2.42 8.53 3.52 2.47 1.48 2.47 1.48 3.2 4.03.09.81.18 1.62.27 2.45 2.31 2.16 3.97 2.99 7 4v-2c2.58-.08 5.17-.14 7.75-.19.73-.02 1.46-.05 2.21-.07 3.14-.05 5.64.09 8.54 1.36 2.22 2.81 1.93 4.99 1.81 8.52-.01.59-.01.59-.07 3.54C305 313 305 313 304 314c-.23 1.51-.41 3.04-.56 4.56-.04.42-.04.42-.26 2.51-.06.63-.12 1.27-.18 1.93l-2-1v-2h-2l1 6h-1l-2 8-1-4h-2c-.06.39-.06.39-.38 2.38C293 335 293 335 291 337v-2h-3l-1 3c-1.88 1.25-1.88 1.25-4 2l-3-1v2h-2l-1 4-1-2-2 1-1-2c-2.47 1.15-4.05 2.05-6 4l-2-2h-3l-2 2v-3l-4 1-1-4-4 2-3-3-2 3c-.39-1.09-.78-2.19-1.19-3.31-1.56-3.69-3.3-4.76-6.81-6.69-1.02-1.66-2.02-3.32-3-5a91 91 0 0 0-5-4l-2-2c.31-1.67.64-3.34 1-5-.39-2.29-.96-3.92-2-6 0-4.43.68-8.18 3-12 2.73-1.36 4.91-1.13 7.96-1.13 1.19 0 2.39-.01 3.62-.01 1.25.01 2.5.01 3.8.02.62-.01.62-.01 3.77-.02 1.19 0 2.39.01 3.62.01h3.33c2.48.11 4.53.41 6.9 1.13.62 2.31.62 2.31 1 5l-2 3c-8.75-.83-16.71-1.76-24.86-5.29C235 300 235 300 232 301c12.44 3.29 24.68 6.5 37.66 5.88 2.59.13 4.12.81 6.34 2.12v-2c1.17-.19 2.34-.39 3.54-.59 1.55-.26 3.1-.52 4.65-.79.77-.12 1.54-.25 2.33-.38 4.06-.69 7.71-1.5 11.48-3.24l-1-2c-.52.45-1.03.91-1.56 1.38-4.43 2.95-9.16 3.94-14.44 3.62v-3c-3.01-.93-3.87-1.04-7 0l-1-8-2.12 1.12c-4.24 1.29-7.05-.2-10.88-2.12l1-2c-.37.19-.37.19-2.25 1.12-3.41 1.09-3.7.4-6.75-1.12-2.34.28-4.68.61-7 1-2-1-2-1-3-3-4.93-.17-8.51-.25-13 2-.68.2-1.37.4-2.07.61-1.93 1.39-1.93 1.39-2.69 4.76-.14 1.35-.26 2.71-.36 4.07-.65 7.21-.65 7.21-2.88 10.56h-2v2l-3 1c-.03-.63-.05-1.25-.08-1.9-.05-.82-.11-1.63-.17-2.48-.05-.81-.09-1.62-.14-2.46-.61-2.16-.61-2.16-2.53-3.51C211 303 211 303 209 304c-.12-.64-.25-1.28-.38-1.94-.2-.68-.41-1.36-.62-2.06l-2-1c-.16.33-.16.33-1 2v-5l-2 1-1-2-2 2c-.04-.63-.07-1.25-.11-1.9-.07-.82-.13-1.63-.2-2.48-.06-.81-.12-1.62-.18-2.46C199 288 199 288 196 286c-.48-1.99-.48-1.99-.62-4.31-.2-2.52-.41-4.84-.94-7.31-.59-3.22-.68-6.12-.44-9.38l3-3c-.31-3.19-.31-3.19-1-6h7l1-1-2-1 1-5c1.11-.31 2.23-.62 3.38-.94C210 247 210 247 212 246l-2-3c-.6-4.54-.37-6.45 2.19-10.31 2.64-2.52 4.35-3.7 7.81-4.69-.16.62-.33 1.24-.5 1.88-1.11 6.94-1.46 13.03 2.5 19.12 2.38 2.38 3.11 2.35 6.38 2.44 3.52-.09 4.31-.17 7.06-2.56 2.95-5.45 3.81-9.68 3.56-15.88 3.95 1.17 6.77 2.46 10 5h2c.14-.62.29-1.24.44-1.88C252 234 252 234 253 232h6l1-5-8-1c-.06-.78-.12-1.57-.19-2.38-.81-2.62-.81-2.62-3.06-3.81-.91-.27-1.81-.53-2.75-.81-1.67-.67-3.33-1.33-5-2l1-2c4.75.58 7.97 2.55 12 5 1.69-1.5 1.69-1.5 3-4-.65-4.22-2.13-7.17-5.22-10.11-3.06-2.08-5.73-3.06-9.28-4.08-1.1-.32-2.21-.64-3.34-.98-8.72-2.29-20.51-4.18-28.91-.02-5.33 3.59-5.33 3.59-7.25 5.19l-4-3h2c-.45-.43-.91-.87-1.38-1.31-2.23-2.33-3.83-5.01-5.62-7.69.25-2.56.25-2.56 1-6 .36-1.79.71-3.58 1.06-5.38.31-1.54.63-3.08.94-4.62 1.51 1.96 2.89 3.78 4 6 .04-.51.04-.51.23-3.08.9-10.08 2.48-20.01 10.27-27.24 3.08-2.07 4.87-1.84 8.5-1.68l3-2v2c1.63-.64 3.25-1.29 4.88-1.94.9-.36 1.8-.72 2.74-1.09 5.89-2.4 10.97-3.17 17.38-1.97"/><path fill="#956136" d="M203 86c.16.33.16.33 1 2-.74 1.92-.74 1.92-1.88 4.19-1.89 4.03-2.74 7.38-3.12 11.81.22-.31.22-.31 1.36-1.86 6-8.03 6-8.03 10.64-10.14-.29.59-.59 1.17-.89 1.78-.96 1.92-1.91 3.85-2.86 5.78-2.21 4.46-4.64 8.79-7.08 13.12C199 115 199 115 199 117c.54-1.18 1.07-2.35 1.62-3.56 6.27-12.31 17.09-18.22 29.93-22.44 15.4-4.47 31.37-3.69 47.14-1.72 10.51 1.29 20.8.78 31.31-.28-2.76 2.96-5.47 5.04-9 7 .68.15 1.36.29 2.06.45 6.22 1.43 12.08 3.28 18 5.61 6.24 2.44 12.26 4.12 18.94 4.94-3.22 3.71-6.31 4-11 5 .65.46 1.31.92 1.98 1.4 5.21 3.72 10.13 7.52 14.96 11.72 5.57 4.74 11.37 7.96 18.06 10.88v1c-2.31-.16-2.31-.16-14-1 .85.56 1.69 1.11 2.56 1.69 4.97 4.09 7.95 10.48 10.44 16.31l-1 2c-2.65-2.58-4.94-4.92-7-8l.55 1.66c1.7 5.34 3.06 10.73 4.2 16.22.26 1.25.53 2.51.8 3.8.4 2.94.47 4.59-.55 7.32l-1.46-2.99c-.64-1.3-1.28-2.59-1.92-3.89-.31-.65-.63-1.3-.96-1.97-1.35-2.73-2.49-4.98-4.66-7.15.28.71.55 1.43.84 2.16 3.34 8.83 4.33 16.45 4.16 25.84-2.93-2.93-3.21-6.51-4.06-10.44-.35-1.54-.69-3.08-1.04-4.62q-.225-1.02-.45-2.07C349 170 349 170 348 167l-1 17c-2.09-2.78-3.44-4.66-4.8-7.68-6.31-13.59-6.31-13.59-13.2-18.32l-3-3 7-5c-.34-.07-.34-.07-2.06-.41-10.58-2.35-20.32-6.66-29.94-11.59 6.49 7.02 11.32 11.53 21 13v2c-8.19.62-14.35-.48-20.99-5.51-2.06-1.77-4.04-3.61-6.01-5.49-5.72-5.34-11.2-10.09-18-14 .68.66 1.35 1.33 2.05 2.01.89.88 1.78 1.77 2.7 2.68.88.87 1.76 1.74 2.67 2.63 2.37 2.46 4.5 4.98 6.58 7.68l-1 2-10-7c0 2.22 2.65 4.36 4 6-2.88-1.35-5.35-2.9-7.89-4.82-.71-.54-1.42-1.07-2.15-1.62-.73-.56-1.46-1.11-2.21-1.68s-1.49-1.13-2.26-1.71L264 130c.44.58.87 1.17 1.32 1.77 4.17 5.64 7.66 11.54 11.06 17.67.22.39.22.39 1.33 2.4 1.67 3.05 3.19 5.85 4.29 9.16-2 0-2 0-3.3-1.29-.52-.63-1.04-1.25-1.58-1.9-2.27-2.69-4.58-5.32-7-7.88-5.48-5.79-10.5-11.46-14.82-18.2-.43-.57-.86-1.14-1.3-1.73h-2c.6.76 1.2 1.53 1.81 2.31 4.98 7.52 5.7 16.92 6.19 25.69-5.52-4.36-9.35-8.86-13.25-14.69-1.02-1.5-2.05-3.01-3.08-4.51-.22-.33-.22-.33-1.34-1.99-1.34-1.82-2.6-3.36-4.33-4.81-5.18-.12-7.85 2.2-11.48 5.53A289 289 0 0 0 223 141c1.38-11.39 6.78-18.35 15-26l2-2c-10.43 3.17-17.4 9.46-24 18 .39-7.35 5.05-13.07 9-19-4.52 3.14-6.52 6.21-9 11h-3c-2.88 5.9-4.84 11.53-6 18h-3l-1 6 10 3c-.72.64-1.44 1.28-2.19 1.94-6.64 6.74-8.93 15-10.81 24.06-2.72-4.08-2.14-7.25-2-12-.03.66-.06 1.31-.1 1.99-.49 7.35-2.08 13.89-4.34 20.89-.31 1-.62 2.01-.94 3.04-1.4 4.44-2.88 8.77-4.62 13.08-4.09 13.42-.95 28.42 1 42 .24 2.79.19 5.17 0 8-1.52 1.73-1.52 1.73-3 3-.48-2.71-.96-5.42-1.44-8.12-.13-.77-.27-1.53-.41-2.31-.13-.75-.26-1.5-.4-2.27-.06-.36-.06-.36-.39-2.22-.32-1.85-.58-3.71-.83-5.57-.18-.83-.35-1.66-.53-2.51l-2-1c-.37-.74-.74-1.49-1.12-2.25-4.06-5.95-10.13-7.96-16.88-9.75-.65-2.98-1.3-5.96-1.94-8.94l-.55-2.52c-1.18-5.5-1.97-10.93-2.51-16.54l-3 7h-2c-.46-13.17.93-24.68 6-37-1.15 1.1-2.3 2.2-3.44 3.31l-1.93 1.87C151 169 151 169 150 172l2 1c-.98 1.17-1.96 2.34-2.94 3.5-.27.32-.27.32-1.65 1.97-.47.5-.93 1.01-1.41 1.53h-1c-.88-11.68 4.55-20.63 11-30-2.16 0-4.22 1.9-6 3 2.73-10.34 8.34-17.72 17-24 2.32-1.23 4.52-2.12 7-3-5.25-3.18-10.01-3.66-16-4 3.34-3.57 5.27-4.87 10.25-5.25 4.33.29 6.88 1.36 10.75 3.25.11-.42.11-.42.66-2.56C183.41 104.03 191.06 96.3 201 87z"/><path fill="#EDC290" d="M248 147c2.16 1.95 3.2 3.83 4.54 6.41 3.52 6.24 9.27 11.13 15.46 14.59-.52-1.2-1.03-2.41-1.57-3.65-.66-1.57-1.33-3.15-1.99-4.73-.34-.79-.69-1.58-1.04-2.4l-.97-2.31c-.29-.7-.59-1.4-.9-2.12C261 151 261 151 262 149c.29.29.29.29 1.77 1.76C270.45 157.13 278.34 164 288 164c-.48-.52-.96-1.04-1.46-1.57-.32-.35-.32-.35-1.92-2.12l-1.89-2.07c-1.8-2.33-2.77-4.47-3.73-7.24.4.17.4.17 2.45 1.06.53.23.53.23 3.24 1.38 1.05.45 2.11.9 3.2 1.37 5.1 1.95 9.5 2.24 14.9 2.27 12.65.21 12.65.21 16.71 3.54 1.67 1.88 1.67 1.88 3.5 4.38.93 1.2 1.87 2.39 2.8 3.59 12.97 16.97 15.31 33.12 12.73 54.23-.56 4.01-1.22 8-1.91 11.99-.22 1.29-.44 2.58-.67 3.91-1.25 6.79-1.25 6.79-1.95 9.28-.33.16-.33.16-2 1l-1-2-1 2h-2l-1-5-4-1 1-2c.25-3.89.33-6.78-2-10-3.71-2.76-7.55-3.87-12-5 .5.97.99 1.94 1.5 2.94 1.83 4.37 2.39 8.38 1.5 13.06-1.39 2.9-3.05 5.45-5 8l5 1v1c-2.42.16-4.83.28-7.25.38-.68.05-1.36.1-2.07.15-2.01.06-2.01.06-5.68-.53-3.87-4.53-5.14-8.33-5.06-14.19.01-.9.02-1.8.02-2.73.02-.69.03-1.37.04-2.08-2.9 4.22-3.91 8.07-5 13-3.38-.69-3.38-.69-7-2-1.44-2.62-1.44-2.62-2-5l-2 2c-2.12-.38-2.12-.38-4-1-.16.5-.16.5-1 3l-2-1c.16-.66.16-.66 1-4h3l-2-3c-4 0-4 0-7 1l1-8h-2c-.16.66-.16.66-1 4h-2l-1 2c-1.12-4.75-1.12-4.75 0-7l-8-1c-.06-.78-.12-1.57-.19-2.38-.81-2.62-.81-2.62-3.06-3.81-.91-.27-1.81-.53-2.75-.81-1.67-.67-3.33-1.33-5-2l1-2c4.75.58 7.97 2.55 12 5 1.69-1.5 1.69-1.5 3-4-.65-4.22-2.13-7.17-5.22-10.11-3.06-2.08-5.73-3.06-9.28-4.08-1.1-.32-2.21-.64-3.34-.98-8.72-2.29-20.51-4.18-28.91-.02-5.33 3.59-5.33 3.59-7.25 5.19l-4-3h2c-.45-.43-.91-.87-1.38-1.31-2.23-2.33-3.83-5.01-5.62-7.69.25-2.56.25-2.56 1-6 .36-1.79.71-3.58 1.06-5.38.31-1.54.63-3.08.94-4.62 1.51 1.96 2.89 3.78 4 6 .04-.51.04-.51.23-3.08.9-10.08 2.48-20.01 10.27-27.24 3.08-2.07 4.87-1.84 8.5-1.68l3-2v2c1.63-.64 3.25-1.29 4.88-1.94.9-.36 1.8-.72 2.74-1.09 5.89-2.4 10.97-3.17 17.38-1.97"/><path fill="#98683F" d="m193 193 4 4 2.25 2.06C201 201 201 201 201 204l3 1c1.94-1.18 1.94-1.18 4-2.88 6.73-5.47 14.69-4.81 23-4.12 9.17 1.37 18.32 3.33 24.31 10.94 1.56 2.82 2.32 4.89 2.69 8.06h-2l-2 4c-.61-.36-1.23-.72-1.86-1.09-.41-.24-.41-.24-2.45-1.41-.8-.46-1.6-.93-2.43-1.41C245 216 245 216 242 216l9 5v2l2 1-1 2 8 1v7l-6-1c-.16.33-.16.33-1 2l-2 3h-2c-.16.33-.16.33-1 2-.58-.8-1.16-1.61-1.75-2.44-2.34-2.66-2.96-2.96-6.25-3.56-.03.65-.05 1.3-.08 1.98-.38 5.9-1.16 9.42-4.92 14.02l1 2h-14c-.33-.82-.33-.82-2-5-.37-.66-.73-1.32-1.11-2-2.07-4.65-1.4-10.4.11-15.12l1-1.88c-1.32.95-2.63 1.91-3.94 2.88-.73.53-1.46 1.06-2.21 1.61C212 234 212 234 211 236c-.24 4.37-.12 7.19 2 11-.63.09-1.25.17-1.9.26-2.47.43-4.74.88-7.1 1.74-1.56 2.62-1.56 2.62-2 5l3 1c-.33.16-.33.16-2 1l-1 2-5-1 1 6-4 2c.77 11.43.77 11.43 3 17l1 3c.33.6.66 1.2 1 1.81 1.23 2.69 1.6 5.27 2 8.19l2-1 1 2 2-2v5l3 1 1 3c.62-.19 1.24-.37 1.88-.56C214 302 214 302 216 303c.41 2.29.41 2.29.62 5.06.08.92.15 1.84.23 2.79L217 313h2v-2c.24-.2.24-.2 1.45-1.23 2.24-2.55 2.11-4.8 2.43-8.15.57-4.19.88-6.28 3.31-9.81 5.29-3.41 10.56-4.42 16.81-3.81.33.5.33.5 2 3 .62-.1.62-.1 3.75-.62 3.56-.47 5.07-.02 8.25 1.62 2.75-.88 2.75-.88 5-2v3c.63.19.63.19 3.81 1.12.36.11.36.11 2.15.64C270 295 270 295 273 293c.07.38.07.38.44 2.31C274 298 274 298 275 301l3-1c.5.33.5.33 3 2v3c1.9-.43 3.79-.87 5.69-1.31 1.05-.25 2.11-.49 3.2-.74 3.09-.94 5.43-2.17 8.11-3.95v4c-6.19 2.27-12.05 3.61-18.59 4.47-.4.09-.4.09-2.41.53l-1 2c-.8-.33-1.61-.66-2.44-1-3.56-1-3.56-1-7.56-.95-5.66.06-11.06-.87-16.62-1.86-1-.17-2-.33-3.03-.5-5.52-.97-10.31-2.22-15.35-4.69l1-2c3.11.5 5.88 1.33 8.81 2.44 6.81 2.36 14.06 2.82 21.19 3.56v-3c.31-1.34.63-2.68 1-4-4.38-.02-8.76-.04-13.13-.05l-4.47-.03c-2.14-.01-4.28-.01-6.42-.02-.65 0-.65 0-3.91-.01C232 298 232 298 230 299c-1.24 3.28-2.21 6.59-3 10l2 1-.06 2.25c.05 2.47.43 4.38 1.06 6.75v3c.61.1 1.22.19 1.85.29 2.63.87 3.15 1.7 4.59 4.02 2.15 3.25 4.49 5.27 7.56 7.69.54.91 1.07 1.81 1.62 2.75.23.37.23.37 1.38 2.25h3l1 3 4-3c.43.5.87.99 1.31 1.5C258 342 258 342 261 342c1.34.31 2.68.63 4 1l2-3 1 4 2-2 2 1 1-3 1 2 2-3 1 4 1-2h2v-2l3-1v2c.72-.8 1.44-1.61 2.19-2.44 2.84-2.58 4.08-3.24 7.81-3.56l1-4 3 1c.14-.93.29-1.86.44-2.81C298 325 298 325 299 322v-2h2l1 1 .18-1.86c.09-.81.17-1.62.26-2.45l.24-2.43C303 312 303 312 304 309c.2-2.19.2-2.19.25-4.56.03-.79.05-1.57.08-2.38-.11-.68-.22-1.36-.33-2.06-3.73-2.48-5.64-2.18-10.06-2.06-6.74.16-6.74.16-8.94-.94v2c-3.15-.35-4.82-.87-7.38-2.81q-.795-1.08-1.62-2.19c.4-2.14.4-2.14 1-4-.6-.17-1.21-.34-1.83-.52C266.96 287 266.96 287 264 283v-2l2.16-.15c5.55-.43 10.56-1.09 15.84-2.85-.48-1.94-.96-3.88-1.44-5.81-.26-1.08-.53-2.16-.81-3.27-.51-1.99-1.1-3.97-1.75-5.92-.04-2.33-.04-4.67 0-7 3.03 2.69 4.99 5.89 7.12 9.31.71 1.11 1.41 2.22 2.14 3.37 1.7 3.24 2.38 5.71 2.74 9.32l3-1c.19.61.39 1.23.59 1.86.26.81.52 1.62.79 2.45.25.8.51 1.6.77 2.43C296 286 296 286 298 289c.46.06.46.06 2.81.38 4.25.83 5.5 2.26 8.19 5.62.85 2.75 1.1 5.45 1.31 8.31.08.74.15 1.48.22 2.25.18 1.81.33 3.62.47 5.44 1.77-1.69 2.95-2.89 4-5.12 1-1.88 1-1.88 4-2.88 1.19-2.06 1.19-2.06 2-4l1 1c-.1-.93-.21-1.86-.31-2.81.1-1.05.2-2.11.31-3.19 2.5-1.88 2.5-1.88 5-3-2.99 16.83-13.8 28.57-25.08 40.76-1.77 2.07-3.13 4.07-4.48 6.43-4.24 7.11-10.33 11.63-18.19 14.15-10.78 2.19-21.32 1.53-31.25-3.34-.85-.38-1.71-.76-2.59-1.14-11.41-5.54-20.91-15.06-29.65-24.1-1.86-1.86-3.82-3.56-5.82-5.26-10.82-9.42-15.64-19.62-18.94-33.5-.77.08-1.55.16-2.34.25-5.52.33-9.59.56-13.91-3.19-1.28-1.33-2.53-2.68-3.75-4.06-.67-.65-1.33-1.3-2.02-1.98-9.27-9.46-14.36-21.16-14.27-34.36.5-6.31 2.6-11.15 6.1-16.35C163 224 163 224 166.44 224c6.24 1.75 9.44 5.5 12.56 11 1.38 3.08 2.58 6.21 3.75 9.38.32.83.63 1.66.96 2.51.77 2.04 1.53 4.07 2.29 6.11h2c1.2-2.39 1.13-3.89 1.12-6.56.01-.81.01-1.61.01-2.44-.11-2.44-.32-4.78-.61-7.2-1.44-12.43-2.17-24.73 3.39-36.21 1.16-2.75 1.3-4.63 1.09-7.59m62 34 1 2Z"/><path fill="#EBC08E" d="M192 296c1.91 2.86 2.97 5.36 4.19 8.56 4.18 10.09 10.42 17.35 18.19 24.85 2.18 2.16 4.13 4.33 6.06 6.71 9.98 11.66 26.11 21.78 41.53 23.26 11.32.49 19.59-1.95 28.44-9.11C292 349 292 349 294 348c-.14.73-.28 1.46-.43 2.21-.65 3.37-1.3 6.74-1.95 10.1-.22 1.15-.44 2.3-.67 3.48-.44 2.3-.88 4.6-1.32 6.89-.4 2.13-.82 4.25-1.24 6.38-.98 5.11-1.63 9.9-1.51 15.13.01 1.1.03 2.21.05 3.35.02.81.05 1.62.07 2.46h2c-.1-.58-.19-1.17-.29-1.77-.98-7.25-1.06-15.52 2.29-22.23 3.26.91 4.93 1.93 7.31 4.38 2.8 6.01 2.63 12.02.96 18.41-4.14 11.19-12.27 17.23-22.65 22.59-12.43 5.57-27.25 3.11-39.62-1.38-1.05-.36-2.11-.72-3.19-1.1-21.37-7.73-45.93-21.28-56.24-42.65-.72-2.82-.5-4.5.43-7.25 1.45-1.45 1.45-1.45 3.25-2.69 7.29-5.82 9.99-15.11 11.09-24.06 1.36-14.74.78-29.52-.34-44.25"/><path fill="#5F3C29" d="M203 86c.16.33.16.33 1 2-.74 1.92-.74 1.92-1.88 4.19-1.89 4.03-2.74 7.38-3.12 11.81.22-.31.22-.31 1.36-1.86 6-8.03 6-8.03 10.64-10.14-1.35 3.05-2.88 4.99-5.25 7.31-4.43 4.88-6.36 10.51-8.59 16.59C196 119 196 119 195 120c.05 2.14.05 2.14.31 4.81.08.88.16 1.75.24 2.65.45 2.53 1.18 4.32 2.45 6.54 3-1 3-1 5-3 .31 1.11.62 2.23.94 3.38C205 138 205 138 206 140c-.33.16-.33.16-2 1-.62 3.06-.62 3.06-1 6l10 3c-.72.64-1.44 1.28-2.19 1.94-6.64 6.74-8.93 15-10.81 24.06-2.72-4.08-2.14-7.25-2-12-.03.66-.06 1.31-.1 1.99-.49 7.35-2.08 13.89-4.34 20.89-.31 1-.62 2.01-.94 3.04-1.4 4.44-2.88 8.77-4.62 13.08-4.09 13.42-.95 28.42 1 42 .24 2.79.19 5.17 0 8-1.52 1.73-1.52 1.73-3 3-.48-2.71-.96-5.42-1.44-8.12-.13-.77-.27-1.53-.41-2.31-.13-.75-.26-1.5-.4-2.27-.06-.36-.06-.36-.39-2.22-.32-1.85-.58-3.71-.83-5.57-.18-.83-.35-1.66-.53-2.51l-2-1c-.37-.74-.74-1.49-1.12-2.25-4.06-5.95-10.13-7.96-16.88-9.75-.65-2.98-1.3-5.96-1.94-8.94l-.55-2.52c-1.18-5.5-1.97-10.93-2.51-16.54l-3 7h-2c-.46-13.17.93-24.68 6-37-1.15 1.1-2.3 2.2-3.44 3.31l-1.93 1.87C151 169 151 169 150 172l2 1c-.98 1.17-1.96 2.34-2.94 3.5-.27.32-.27.32-1.65 1.97-.47.5-.93 1.01-1.41 1.53h-1c-.88-11.68 4.55-20.63 11-30-2.16 0-4.22 1.9-6 3 2.73-10.34 8.34-17.72 17-24 2.32-1.23 4.52-2.12 7-3-5.25-3.18-10.01-3.66-16-4 3.34-3.57 5.27-4.87 10.25-5.25 4.33.29 6.88 1.36 10.75 3.25.11-.42.11-.42.66-2.56C183.41 104.03 191.06 96.3 201 87z"/><path fill="#ECC290" d="M261 149c.97.87 1.94 1.73 2.94 2.62 7.1 6.05 14.26 10.26 23.06 13.38l1-1c-.48-.52-.96-1.04-1.46-1.57-.63-.7-1.26-1.4-1.92-2.12l-1.89-2.07c-1.8-2.33-2.77-4.47-3.73-7.24l2.45 1.06c1.07.45 2.14.91 3.24 1.38 1.05.45 2.11.9 3.2 1.37 5.1 1.95 9.5 2.24 14.9 2.27 12.65.21 12.65.21 16.71 3.54 1.67 1.88 1.67 1.88 3.5 4.38.93 1.2 1.87 2.39 2.8 3.59 12.97 16.97 15.31 33.12 12.73 54.23-.56 4.01-1.22 8-1.91 11.99-.22 1.29-.44 2.58-.67 3.91-1.25 6.79-1.25 6.79-1.95 9.28-.33.16-.33.16-2 1l-1-2-1 2h-2l-1-5c-.66-.16-.66-.16-4-1l1-2c.25-3.89.33-6.78-2-10-3.71-2.76-7.55-3.87-12-5 .5.97.99 1.94 1.5 2.94 1.83 4.37 2.39 8.38 1.5 13.06-1.39 2.9-3.05 5.45-5 8l5 1v1c-2.42.16-4.83.28-7.25.38-.68.05-1.36.1-2.07.15-2.01.06-2.01.06-5.68-.53-3.87-4.53-5.14-8.33-5.06-14.19.01-.9.02-1.8.02-2.73.02-.69.03-1.37.04-2.08-2.9 4.22-3.91 8.07-5 13-3.38-.69-3.38-.69-7-2-1.44-2.62-1.44-2.62-2-5l-2 2c-2.13-.38-2.13-.38-4-1l-1 3-2-1 1-4h3l-2-3c-4 0-4 0-7 1l2-8h2l1-3 2 1v2c2.84 1.42 5.18 1.23 8.19.38 1.81-1.38 1.81-1.38 2.56-4.5.08-.95.17-1.9.25-2.88-.5-.33-.5-.33-3-2-.19-3.12-.19-3.12 0-6l-2-1-1-2-3 4-1-5h2l2-5h3l-1-3 7-3v-6c2.38-.62 2.38-.62 5-1l2 2c1.93-1.68 2.91-2.6 3.5-5.12.17-.62.33-1.24.5-1.88l3-1-4-1v-5l2 1c.17-.5.17-.5 1-3-.52.21-1.03.41-1.56.62-3.47.54-6.15-.54-9.44-1.62l1 3-2 1-1 2-1 1c.5.16.5.16 3 1-3.06.54-5.89 1-9 1v-3h2l1-3 3-1-2-4h-5v-3c1.65-1.03 3.32-2.03 5-3v-2l-6-2c-.41.78-.82 1.57-1.25 2.38-1.83 2.75-2.83 3.33-5.75 4.62-7.67-14.6-7.67-14.6-9-22m9 79 1 2 1-2z"/><path fill="#ECC08E" d="m193 193 4 4 2.25 2.06C201 201 201 201 201 204l3 1c1.94-1.18 1.94-1.18 4-2.88 6.73-5.47 14.69-4.81 23-4.12 9.17 1.37 18.32 3.33 24.31 10.94 1.56 2.82 2.32 4.89 2.69 8.06h-2l-2 4c-.61-.36-1.23-.72-1.86-1.09-.41-.24-.41-.24-2.45-1.41-.8-.46-1.6-.93-2.43-1.41C245 216 245 216 242 216l9 5v2l2 1-1 2 8 1v7l-6-1c-.16.33-.16.33-1 2l-2 3h-2c-.16.33-.16.33-1 2-.58-.8-1.16-1.61-1.75-2.44-2.34-2.66-2.96-2.96-6.25-3.56-.01.33-.01.33-.08 1.98-.38 5.9-1.16 9.42-4.92 14.02l1 2h-14l-2-5c-.37-.66-.73-1.32-1.11-2-2.07-4.65-1.4-10.4.11-15.12l1-1.88c-1.32.95-2.63 1.91-3.94 2.88-.73.53-1.46 1.06-2.21 1.61C212 234 212 234 211 236c-.24 4.37-.12 7.19 2 11-.63.09-1.25.17-1.9.26-2.47.43-4.74.88-7.1 1.74-1.56 2.62-1.56 2.62-2 5l3 1c-.33.16-.33.16-2 1-.16.33-.16.33-1 2l-5-1 1 6-4 2c-2-.94-2-.94-4-3-.25-2.36-.19-4.58-.04-6.94C190 253 190 253 189 251c-.07-2.34 0-4.66.06-7-.05-2.46-.24-4.77-.54-7.2-1.45-12.43-2.17-24.73 3.39-36.21 1.16-2.75 1.3-4.63 1.09-7.59m62 34 1 2Zm-62 38 1 4-2-2z"/><path fill="#202524" d="M158 161c1 2 1 2 .04 5.05-.47 1.22-.93 2.44-1.42 3.7-2.77 7.29-3.76 13.92-4.18 21.63l-.13 2.23c-.11 1.79-.21 3.59-.31 5.39h2c.12-.72.25-1.44.38-2.19.61-2.77 1.5-5.21 2.62-7.81h1c.12 1.15.24 2.3.37 3.48.99 9.22 2.11 18.37 3.63 27.52.57.09 1.14.17 1.72.26 5.95 1.08 9.71 2.74 14.28 6.74.36 1.33.69 2.66 1 4l2 1c3.25 6.5 5.47 13.66 5 21-1.59-2.39-2.55-4.18-3.55-6.8-.14-.37-.14-.37-.87-2.21-.59-1.52-1.17-3.04-1.75-4.57-2.21-5.58-4.75-10.3-9.83-13.8-3.66-1.14-6.4-.82-10 .38-1.06 2.69-1.06 2.69-2 6l-1.03 2.79c-2.71 8.98-1.54 17.95 2.42 26.33 4.51 8.05 11.07 18.61 19.61 22.88 2.04.07 4.08.08 6.12.06 1.1-.01 2.2-.02 3.33-.02.84-.02 1.68-.03 2.55-.04 4.14 10 4.14 10 2.46 15.91-.51 2.31-.36 3.89-.02 6.21 1.94 17.08 3.02 39.96-7.38 54.44-1.92 2.35-3.47 3.73-6 5.5-2.06 1.94-2.06 1.94-2.25 5.13 5.21 16.71 23.16 29.16 38.01 37.05 17.01 8.65 36.94 16.39 56.25 12.07 11.12-4.19 20.46-11.72 25.93-22.31 1.1-3.3 1.2-6.47 1.25-9.94.03-1.02.05-2.04.08-3.09-.39-3.48-1.18-5.21-3.33-7.97-2.69-1.81-2.69-1.81-5-3-.34 2.87-.67 5.75-1 8.62-.1.81-.19 1.62-.29 2.45-.49 4.34-.82 8.56-.71 12.93h-2c-2.59-12.91 1.14-25.42 4-38h3v4c.87.08 1.73.16 2.62.25 4.82 1.07 7.97 3.59 11.73 6.68 8.76 6.85 18.83 11.05 29.06 15.12 3.02 1.21 6.03 2.44 9.04 3.66 2.2.9 4.39 1.79 6.59 2.68 23.46 9.53 23.46 9.53 30.96 16.61.77.69 1.53 1.38 2.32 2.09 7.06 6.64 14.36 15.38 14.79 25.5.01 2.47-.02 4.94-.11 7.41-2.28-2.28-2.45-3.36-3.19-6.44-3.37-11.67-12.13-23.28-22.43-29.75-1.78-.97-3.57-1.9-5.38-2.81-.97-.49-1.95-.99-2.95-1.5-9.97-4.82-20.26-8.94-30.53-13.06-6.66-2.71-13.01-5.62-19.25-9.2-1.99-1.09-3.89-1.9-6.02-2.68-3.73-1.79-5.86-3.97-8.57-7.04-1.89-1.71-3.2-2.12-5.68-2.52.78.87 1.57 1.73 2.38 2.62 3.94 4.8 5.1 9.63 4.93 15.76-1.47 12.44-6.76 20.94-16.12 28.93-4.73 3.62-9.52 5.93-15.19 7.69-.29.1-.29.1-1.78.58-23.7 4.5-47.72-6.01-67.14-18.67-3.33-2.3-6.38-4.77-9.33-7.53-2.38-2.22-4.71-4.35-7.29-6.34-7.15-5.94-12.65-14.89-14.46-24.04.41-2.82.41-2.82 1-5-2.43 0-5.08 3.61-6.8 5.18-2.29 1.89-4.62 3.34-7.2 4.82-.64.41-1.28.83-1.94 1.25-11.4 7.24-24.05 12.55-36.38 18C91.1 405.78 91.1 405.78 79 415l-1-4c5.23-4.1 10.55-7.68 16.38-10.88.77-.42 1.55-.85 2.36-1.3 5.93-3.21 11.97-6.04 18.16-8.71 10.17-4.41 20.15-9.22 30.1-14.11.91-.45 1.82-.89 2.76-1.35 2.59-1.28 5.17-2.59 7.74-3.9.76-.38 1.52-.75 2.3-1.14 4.7-2.44 8.12-5.22 11.67-9.15 2.63-2.52 5.26-2.58 8.72-2.52l3.81.06c.99-1.87 1.97-3.75 2.94-5.62.54-1.05 1.09-2.09 1.65-3.17 2.45-5.57 2.57-11.1 2.58-17.11 0-.75 0-1.5.01-2.28 0-1.59.01-3.18.01-4.77 0-2.38.02-4.76.03-7.14.04-10.12-.7-19.9-2.22-29.91-.95.17-1.9.35-2.87.53-4.75.71-7.27-.87-11.13-3.53-7.82-6.34-13.02-14.39-18-23-.41-.69-.81-1.37-1.23-2.08-3.97-8.26-2.91-20.79.04-29.23 1.09-2.65 1.88-4.39 3.94-6.37 2.14-3.96.48-7.87-.56-12.07-.1-.44-.1-.44-.62-2.69-.51-2.19-1.03-4.38-1.57-6.56l-2 4c-4.35-9.65-5.84-20.21-2.94-30.62.94-3.38.94-3.38.25-5.33-.1-.67-.2-1.35-.31-2.05 1.65-2.14 1.65-2.14 3.94-4.25.75-.71 1.5-1.41 2.27-2.14z"/><path fill="#ECC290" d="M196 328c1.8.2 1.8.2 4 1 1.61 2.08 1.61 2.08 3.19 4.81 3.87 6.4 8.26 12.27 12.81 18.19.6.81 1.2 1.61 1.81 2.44 5.89 7.84 12.45 14.75 20.66 20.17 1.87 1.7 2.15 2.94 2.53 5.39h-2v2l3 1-1 1 1 3c-.82.17-.82.17-5 1 .33.17.33.17 2 1l-3 1-1-2-3 1c-.33-.17-.33-.17-2-1-.16.33-.16.33-1 2l-1-2h-2c-1.62 2.57-2.04 3.68-1.62 6.75.2.74.41 1.49.62 2.25l-4 2 1 2c.35 1.33.69 2.66 1 4 .33-.5.33-.5 2-3h2c1 3 1 3 1 5 3 1 3 1 4 1l-1-4c3 0 3 0 4.69 1.62 1.63 2.96 1.54 5.05 1.31 8.38-6.29-.47-12.59-1.58-18-5-1.16-2.54-1.16-2.54-2-5a97 97 0 0 0-4-3l-1-3h-2v2c-2.76.96-4.15 1.35-7 1-3.77-2.17-6.83-5.04-10-8-.96-.87-1.92-1.74-2.91-2.63-5.59-5.29-11.06-10.73-13.09-18.37.2-2.86.4-4.4 2.45-6.45.6-.41 1.19-.82 1.8-1.24 8.03-6.57 9.6-15.97 11.41-25.71q.21-1.185.45-2.4c.12-.72.25-1.43.38-2.16.55-2.22 1.42-4.04 2.51-6.04"/><path fill="#CF855D" d="M192 296c1.91 2.86 2.97 5.36 4.19 8.56 4.18 10.09 10.42 17.35 18.19 24.85 2.18 2.16 4.13 4.33 6.06 6.71 9.98 11.66 26.11 21.78 41.53 23.26 11.32.49 19.59-1.95 28.44-9.11C292 349 292 349 294 348c-.34 2.74-.72 5.46-1.12 8.19-.1.77-.19 1.54-.29 2.33-.64 4.16-1.32 6.72-4.58 9.53C285 370 285 370 283 370c-.25.58-.5 1.15-.76 1.75-2.88 5.23-8.65 11.12-14.24 13.25-11.27 1.84-21.25-4.01-30.34-10.06-11.58-8.46-20.7-19.11-28.66-30.94l-3.75-5.31c-1.74-2.46-3.33-4.83-4.77-7.48-.49-.73-.98-1.46-1.48-2.21h-3l-2 6h-1c.01-.61.01-1.23.02-1.86.09-12.43-.01-24.75-1.02-37.14"/><path fill="#EBC190" d="M330.125 199.938c3.62 3.26 5.98 7.62 7.88 12.06v2c-.77-.31-1.53-.62-2.32-.94-4.49-1.77-7.85-2.15-12.68-2.06.16.5.16.5 1 3 .74 3 .74 3 1 6-1.49 1.69-1.49 1.69-3 3 .5.5 1.01 1 1.53 1.51 5.28 5.52 5.28 5.52 6.15 10.12-.79 3.9-2.25 6.25-4.68 9.37-.33-.16-.33-.16-2-1 .16-.33.16-.33 1-2 .25-3.89.32-6.78-2-10-3.72-2.75-7.56-3.86-12-5 .49.97.99 1.94 1.5 2.94 1.83 4.37 2.39 8.38 1.5 13.06-1.39 2.9-3.06 5.45-5 8 1.64.33 3.3.66 5 1v1c-2.42.16-4.83.28-7.26.38l-2.06.15c-2.01.06-2.01.06-5.68-.53-3.87-4.53-5.14-8.33-5.07-14.18l.03-2.74c.01-.68.02-1.37.04-2.08-2.9 4.22-3.92 8.07-5 13-3.38-.68-3.38-.68-7-2-1.44-2.62-1.44-2.62-2-5-.67.66-1.32 1.32-2 2-2.13-.37-2.13-.37-4-1-.33.99-.67 1.98-1 3-.67-.33-1.32-.66-2-1 .32-1.32.66-2.64 1-4h3c-.67-.99-1.32-1.98-2-3-4 0-4 0-7 1 .66-2.64 1.31-5.28 2-8h2c.32-.99.66-1.98 1-3 .66.33 1.31.66 2 1v2c2.83 1.42 5.18 1.24 8.18.38 1.82-1.38 1.82-1.38 2.56-4.5.09-.95.17-1.9.26-2.88-1-.66-1.99-1.32-3-2-.19-3.12-.19-3.12 0-6-.67-.33-1.32-.66-2-1-.33-.66-.67-1.32-1-2-1 1.32-1.99 2.64-3 4-.33-1.65-.67-3.3-1-5h2c.66-1.32 1.31-2.64 2-4 1.64.33 3.3.66 5 1v-3h2c1.49 3.37 2 5.21 2 9 .66.33 1.31.66 2 1 .16-.7.32-1.4.5-2.12 3.25-6.24 9.1-9 15.56-11.25 7.92-2.19 18.65-4.33 26.06.31m-60.12 28.06c.32.66.66 1.32 1 2 .32-.66.66-1.32 1-2z"/><path fill="#956136" d="M196 95c1.07 3.2.96 3.89.12 7-.86 3.56-1.35 6.97-1.62 10.62-.34 4.4-1.11 8.21-2.5 12.38-2.85-2.85-2.46-5.8-2.62-9.62l-.12-2.15c-.1-1.74-.18-3.48-.26-5.23-2.44 7.32-1.43 16.47 0 24h-2v2c-.37.2-.37.2-2.25 1.19-3.68 2.42-4.76 4.91-6.75 8.81 1.07-.64 2.15-1.28 3.25-1.94 4.38-2.61 7.92-3.19 13-3.12.89.01 1.78.02 2.7.02.68.02 1.35.03 2.05.04v1q-.9.24-1.83.48c-5.21 1.52-8.25 2.69-11.17 7.52-1.04 1.98-2.06 3.97-3 6h2c.03-.37.03-.37.19-2.25 1.07-3.62 2.72-4.69 5.81-6.75 3.47-1.16 6.36-1.07 10-1-.42.47-.84.94-1.28 1.43-.55.62-1.09 1.24-1.66 1.88-.27.31-.27.31-1.65 1.87C195 151 195 151 194 154c.68-.82 1.36-1.65 2.06-2.5 2.94-2.5 2.94-2.5 6.75-2.81 1.05.1 2.11.2 3.19.31-.36.53-.73 1.07-1.1 1.62a251 251 0 0 0-9.51 15.22c-1.31 2.03-2.66 3.49-4.39 5.16-.79 1.11-1.56 2.24-2.31 3.38-2.46 3.51-5.32 5.95-8.69 8.62-1.71 1.63-3.35 3.31-5 5v-6l-3 9h-1c.45-8.15 1.11-16.04 3-24-3.81 7.76-5.93 15.65-8 24h-1v-17l-6 10-1-4c-.16.33-.16.33-1 2h-2c-.06.74-.12 1.47-.18 2.23-.09.98-.17 1.95-.26 2.96-.08.96-.16 1.92-.24 2.92-.3 2.68-.75 5.26-1.32 7.89h-1c-.48-12.84 1.07-24.02 6-36-1.15 1.1-2.3 2.2-3.44 3.31l-1.93 1.87C151 169 151 169 150 172l2 1h-3c-1-2-1-2-.29-4.4 4.1-9.96 9.24-19.28 17.29-26.6.5-.16.5-.16 3-1-.61.14-1.23.29-1.86.44-.81.18-1.62.37-2.45.56-.8.19-1.6.37-2.43.56-2.26.44-2.26.44-5.26.44 6.5-7.97 11.74-13.02 22-15-4.89-4.17-9.57-7.05-16-8v-1c5.76-.35 10.04-.34 15 3 2.25 2.62 2.25 2.62 4 5 .33.16.33.16 2 1-.23-1.28-.45-2.56-.69-3.88-.95-8.81 2.83-16.93 7.69-24.12 1.58-1.84 3.18-3.39 5-5"/><path fill="#1F2525" d="M345 226.875c2.55 1.44 3.44 3.12 4.47 5.82 1.35 5.88 1.25 12.51-.47 18.3h3c-2.36 10.25-8.94 29.33-18.06 35.37-2.57 2.16-2.64 3.67-3.19 6.95-3.02 13.46-11.91 24.41-21.18 34.27-9.18 9.79-11.62 19.64-14.57 32.41h-3l1-11c-.99.91-1.98 1.82-3 2.76-9.03 7.74-18.24 9.09-29.9 8.45-20.01-1.98-36.93-19.19-49.56-33.37-1.49-1.66-2.99-3.3-4.54-4.89-5.64-5.88-12.13-15.66-13-23.95.33-.32.33-.32 2-2 .19.45.19.45 1.18 2.72 3.97 8.72 8.52 14.9 15.82 21.28.65.58 1.29 1.16 1.96 1.75 1.25 1.1 2.52 2.2 3.79 3.28 1.79 1.57 3.53 3.18 5.25 4.83 14.17 13.52 28.64 22.79 48.66 22.41 9.1-.4 15.81-3.74 22.36-9.99 2.65-3.05 4.52-6.33 6.47-9.85 1.54-2.47 3.14-4.19 5.26-6.17 18.64-17.64 22.22-39.94 25.5-64.26l.81-5.85c.66-4.71 1.3-9.43 1.94-14.15.33 1 .66 1.98 1 3 2.5-.38 3.71-.66 5.41-2.59.4-.63.8-1.26 1.21-1.91 2.2-3.4 2.2-3.4 4.38-4.5v-2c-3.98 1.3-5.64 2.59-8 6 .26-1.6.53-3.21.81-4.81.08-.44.08-.44.46-2.7.96-3.27 2.17-5.39 5.73-5.61"/><path fill="#212320" d="M276.05 86.281c6.18.75 12.29.91 18.51.91h2.74c5.64-.05 11.11-.48 16.7-1.19-1.75 3.08-3.45 5.56-6 8 13.43 6.45 24.16 9.68 39 9-2.42 4.35-4.61 6.53-9 9h-3c10.48 10.71 21.27 21.64 37 22v2c-5.72 2.45-9.79 3.33-16 3 .39.53.77 1.07 1.17 1.62 5.01 7.17 8.9 14.56 9.83 23.38l-5-2-1 1c.32 1.67.66 3.33 1 5 .4 6.37.14 11.97-2 18l-2-4c-.12.99-.24 1.98-.37 3-.85 6.77-1.75 13.42-3.63 20l-3-2-6 21 4 1c3.83 5.25 4.14 9.67 4.12 16.06.01 1.23.01 2.46.01 3.72-.13 3.22-.13 3.22-1.13 6.22h-3c.03-1.08.07-2.15.11-3.26.02-1.43.05-2.87.08-4.3.02-.71.05-1.41.07-2.14.08-5.18-.94-8.66-3.26-13.3-1.89.21-1.89.21-4 1-1.05 2.07-1.05 2.07-1.75 4.56l-.73 2.51c-.17.63-.34 1.27-.52 1.93.41-.66.82-1.32 1.25-2 .58-.66 1.15-1.32 1.75-2h4c1.26 2.52 1.1 4.31 1.06 7.12-.01.91-.02 1.82-.02 2.76-.01.35-.01.35-.04 2.12h-1v-9c-.74.74-1.49 1.48-2.25 2.25l-6.75 6.75-2-1c-.28-5.09.05-9.6 1.07-14.6 3.16-15.52 5.61-37.21-3.36-51.15-2.05-2.98-4.24-5.84-6.49-8.67-1.88-2.44-3.54-5-5.22-7.58 4.08 1.59 6.67 4.52 9.56 7.69.48.5.97 1.01 1.46 1.53 11.19 12.17 10.58 30.25 10.98 45.78 2.87-10.94 5.62-21.75 7-33 1.75 2.62 2.39 4.04 3 7 3.83-7.65.14-19.29-2-27-.38-.73-.77-1.47-1.16-2.22-.84-1.78-.84-1.78.16-4.78 1.48 2.64 1.48 2.64 9 16-2.81-16.07-2.81-16.07-4.75-20.81-1.25-3.19-1.25-3.19-.25-6.19l7 8a407 407 0 0 0-3.13-6.69c-.14-.31-.14-.31-.85-1.9-2.27-4.7-4.83-7.3-9.02-10.41 3.12-.97 5.52-.99 8.75-.56.8.1 1.6.2 2.42.3.61.09 1.21.17 1.83.26-.56-.22-1.12-.44-1.7-.67-6.68-2.97-11.63-6.99-17.02-11.8-4.54-4.01-9.15-7.24-14.37-10.32-.63-.4-1.26-.8-1.91-1.21v-1c.35-.07.35-.07 2.12-.4.91-.18 1.82-.36 2.75-.54.91-.17 1.81-.35 2.75-.53 2.38-.53 2.38-.53 4.38-1.53-.97-.22-1.94-.44-2.94-.67-8.09-1.89-15.83-4.17-23.57-7.22-4.12-1.63-8.21-2.96-12.49-4.11 2.88-2.24 5.85-4.16 9-6-.64.07-1.29.14-1.95.22-10.35 1.06-20.3 1.07-30.61-.22-22.39-2.72-46.35-2.31-65.07 12-7.54 6.53-10.8 14.27-12.37 24h-1c-.77-8.89 3.13-16.74 8.19-23.9 16.9-19.56 47.53-18.84 70.86-15.82"/><path fill="#956235" d="M277.688 89.281c10.51 1.29 20.8.78 31.31-.28l-1 2c-13.09 3.61-25.72 2.89-39.1 1.54-6.88-.69-13.58-.82-20.46-.04-.42.04-.42.04-2.57.28-.61.07-1.23.14-1.87.22v2l4-1v2h-5l3 6-2 1c.17.82.17.82 1 5h7l2 2c-.16.49-.16.49-1 3h3c.63 3.37.63 3.37 1 7l-2 2c-2.06-.19-2.06-.19-4-1l-1-3-2 2v-2c-.8-.25-1.61-.5-2.44-.75-.84-.41-1.69-.83-2.56-1.25-.66-2.08-.66-2.08-1-4-11.23 3.84-18.75 9.64-26 19 .39-7.35 5.05-13.07 9-19-4.52 3.14-6.51 6.21-9 11h-3c-2.87 5.9-4.84 11.53-6 18-2.25-2.69-3.88-4.65-5-8l-4 2c-3.53-4.6-4.39-9.32-4-15 2.15-7.62 6.01-14.84 11-21l2-1c-.69 3.98-2.61 7.12-4.56 10.62-3.44 6.16-3.44 6.16-3.44 8.38.54-1.18 1.07-2.35 1.63-3.56 6.26-12.32 17.08-18.22 29.92-22.44 15.4-4.47 31.38-3.69 47.14-1.72"/><path fill="#EBC08D" d="M166.438 224c6.45 1.81 9.12 5.47 12.56 11 6.75 13.55 12.58 32.06 10.72 47.29-.12.28-.12.28-.72 1.71-3.76 1.25-6.03 1.52-10 1-3.06-1.95-5.48-4.4-8-7l-2.04-1.98c-9.23-9.52-14.34-21.13-14.24-34.36.49-6.31 2.59-11.15 6.1-16.35 2.18-1.31 2.18-1.31 5.62-1.31"/><path fill="#EDC28F" d="M248 147c2.16 1.95 3.19 3.82 4.52 6.4 2.62 4.61 6.65 8 10.48 11.6l-2 1c-1.92-1.41-3.84-2.83-5.75-4.25-.54-.4-1.08-.79-1.63-1.2-2.42-1.8-4.6-3.53-6.62-5.77-2.66-2.37-4.75-2.57-8.25-3.03-1.08-.15-2.16-.3-3.27-.45L233 151v5l5-2v4l3 1-1 4c-.56-.23-1.11-.45-1.69-.69-3.27-.44-4.65.85-7.31 2.69l-3 2-1-4-2 1c.15.29.15.29.94 1.75.99 2.09 1.58 4 2.06 6.25-.56-.1-.56-.1-3.38-.62-1.19-.13-2.39-.25-3.62-.38l-2 2 2 2c-.5.45-.99.91-1.5 1.38C218 178 218 178 218 180c.5.16.5.16 3 1v2h-6v3h-2v-2l-6-1v3c.33-.16.33-.16 2-1-.48 4.29-1.66 6.27-5 9h-2c-.16-.5-.16-.5-1-3-.5.16-.5.16-3 1-.39-1.58-.76-3.16-1.12-4.75-.21-.88-.42-1.76-.64-2.67-.27-2.91.22-4.15 1.76-6.58l3 6c.04-.51.04-.51.23-3.08.9-10.08 2.48-20.01 10.27-27.24 3.08-2.07 4.87-1.84 8.5-1.68l3-2v2c1.63-.64 3.25-1.29 4.88-1.94.9-.36 1.8-.72 2.74-1.09 5.89-2.4 10.97-3.17 17.38-1.97"/><path fill="#EFDFC6" d="M141 427c2 3.75 2 3.75 2 6 1.94-.75 1.94-.75 4-2 .63-2.08.63-2.08 1-4 7.91 14.83 13.56 29.95 13 47-7.39-2.97-14.6-6.12-21.56-10-.56-.31-.56-.31-3.38-1.88-3.5-2.43-5.56-4.69-8.06-8.12v-2h2v-3l-2 2c-3-4.75-3-4.75-3-7 .95-.12 1.9-.25 2.88-.38C131 443 131 443 133 441c.66-.1 1.32-.21 2-.31.33-.12.33-.12 2-.69 1.25-2.56 1.25-2.56 2-5h-2l-1 4-3-1c.83-2.5 1.79-4.67 3-7l3 2-1-1v-2h2z"/><path fill="#1D2628" d="M244.414 223.832c3.4 2.5 4.47 3.54 5.27 7.86.05.54.05.54.32 3.31-.51-.4-1.02-.8-1.54-1.21-3.97-3.05-7.77-5.94-12.46-7.79l-3 1 1 2-3 1 1 4h2l2-2c.33.49.33.49 2 3l2 1c-.42 5.99-1.32 9.25-5 14l1 2h-14l-2-5c-.19-.33-.19-.33-1.11-2.01-2.08-4.64-1.41-10.39.11-15.12.33-.62.66-1.23 1-1.87-1.32.95-2.63 1.91-3.94 2.87l-2.22 1.62c-1.84 1.51-1.84 1.51-2.84 3.51-.07 1.54-.09 3.08-.07 4.62.01.41.01.41.03 2.48.01.63.02 1.25.04 1.9-3.11-2.63-4.83-4.53-6.25-8.38.31-4.62 1.7-6.04 5.07-9.05 9.71-7.03 23.82-9.88 34.59-3.74M322 223c4.12 3.36 6.69 6.35 7.69 11.62-.8 3.91-2.26 6.26-4.69 9.38l-2-1 1-2c.25-3.89.33-6.78-2-10-3.71-2.76-7.55-3.87-12-5 .5.97.99 1.94 1.5 2.94 1.83 4.37 2.39 8.38 1.5 13.06-1.39 2.9-3.05 5.45-5 8l5 1v1c-2.42.16-4.83.28-7.25.38-.68.05-1.36.1-2.07.15-2.01.06-2.01.06-5.68-.53-3.87-4.53-5.14-8.33-5.06-14.19.01-.9.02-1.8.02-2.73.02-.69.03-1.37.04-2.08l-4 4c.24-4.96 1.78-7.83 5.06-11.39 8.09-6.73 18.75-7.45 27.94-2.61"/><path fill="#966236" d="M173 142h-2v3h2l1 2c2.06.62 2.06.62 4 1v2l-1.89.18c-2.11.82-2.11.82-3.16 3.11-.23.91-.46 1.83-.7 2.77-.24.92-.48 1.84-.73 2.79-.17.71-.34 1.42-.52 2.15h2c1.58 5.13.43 7.67-1.81 12.21-2.43 5.69-3.71 11.8-5.19 17.79h-1v-17l-6 10-1-4-1 2h-2c-.06.74-.12 1.47-.18 2.23-.05.49-.05.49-.26 2.96-.08.96-.16 1.92-.24 2.92-.3 2.68-.75 5.26-1.32 7.89h-1c-.48-12.84 1.07-24.02 6-36-1.15 1.1-2.3 2.2-3.44 3.31l-1.93 1.87C151 169 151 169 150 172l2 1h-3c-1-2-1-2-.29-4.4 4.1-9.96 9.24-19.28 17.29-26.6 3.13-1.04 3.99-.93 7 0"/><path fill="#7C553E" d="M164.125 230.5c4.66.81 6.99 3.91 9.88 7.5 3.49 5.11 5.76 9.71 6 16-.23 1.16-.46 2.31-.69 3.5-.33 3.65-.19 4.2 1.62 7.12 2.03 3.32 2.52 4.62 2.07 8.38l-1-2c-1.96-.2-3.91-.4-5.86-.59-3.45-.66-5.45-2.19-8.14-4.41v-2l-1.8-.66c-4.62-2.81-6.42-8.44-8.2-13.34-1.1-6.69-.22-12.08 3-18 1-1 1-1 3.12-1.5"/><path fill="#5A3A27" d="M250.316 203.957c3.92 2.99 6.19 6.13 7.43 10.92.09.7.17 1.4.25 2.12-4.46-.98-8.92-1.97-13.36-3.07-16.2-3.87-31.33-5.62-46.64 2.07 2.09-7.12 6.08-12.52 12.44-16.5 11.33-4.89 29.59-1.61 39.88 4.46"/><path fill="#242622" d="M203 86c.16.33.16.33 1 2-.74 1.92-.74 1.92-1.88 4.19-1.89 4.03-2.74 7.38-3.12 11.81.22-.31.22-.31 1.36-1.86 6-8.03 6-8.03 10.64-10.14-1.35 3.05-2.88 4.99-5.25 7.31-5.1 5.62-7.25 12.65-9.75 19.69h-2c-.25-7.93.29-15.24 2-23-8.35 8.91-12.36 18.05-12.07 30.31.02.56.05 1.12.07 1.69-2.84-1.28-4.16-2.18-6.31-4.56-3.25-2.95-5.38-3.19-9.69-3.44.61.33 1.23.65 1.86.99.81.44 1.62.87 2.45 1.32.8.43 1.6.86 2.43 1.3 2.1 1.29 3.61 2.57 5.26 4.39-.56.15-1.11.29-1.69.45-8.84 2.59-14.77 7.28-20.31 14.55 1.2-.5 2.39-.99 3.62-1.5 3.59-1.36 6.51-1.79 10.38-1.5-3 2-3 2-5.25 3.06-8.45 5.95-14.34 17.42-17.45 27.11-.3 1.83-.3 1.83-.3 5.83-2 2.25-2 2.25-4 4-.88-11.68 4.55-20.63 11-30-2.16 0-4.22 1.9-6 3 2.73-10.34 8.34-17.72 17-24 2.32-1.23 4.52-2.12 7-3-5.25-3.18-10.01-3.66-16-4 3.34-3.57 5.27-4.87 10.25-5.25 4.33.29 6.88 1.36 10.75 3.25.11-.42.11-.42.66-2.56C183.41 104.03 191.06 96.3 201 87z"/><path fill="#EFDFC6" d="M176.5 361.563c.82.14 1.65.29 2.5.44l-2 2-3-1c.34 10.11 4.53 18.3 11 26l-4 1 1-3-5 1v2l-2 1 4 2-1 2-6-1v-6l-5-1v-2h-2v6h-3l4 1v2c-.66.16-.66.16-4 1l2 1v2l5 2c-.33.16-.33.16-2 1 2.84 6.36 6.29 10.91 11 16 1.23 1.41 2.46 2.83 3.69 4.25 1.86 2.14 3.71 4.14 5.75 6.12 1.56 1.63 1.56 1.63 1.56 3.63-10.91-5.09-18.49-16.24-25-26h-4l-1 2c-2.06.62-2.06.62-4 1 .33-.17.33-.17 2-1 .91-4.3 1.16-7.75 0-12 .5-.17.5-.17 3-1l-2-5-3 3c-.84-2.93-1.07-4.71-.31-7.69 1.52-2.68 2.37-3.45 5.31-4.31 2.25.37 2.25.37 4 1l-1-1 1-2 2 1c-1.88-3.88-1.88-3.88-3-5-2.01.28-4.01.62-6 1 1.63-1.8 3.07-3.04 5.19-4.25 2.62-1.64 4.52-3.32 6.75-5.44 2.83-2.56 3.65-3.26 7.56-3.75m-19.5 30.44 2 1h-3z"/><path fill="#603D29" d="M329 157c8.71 4.75 12.11 14.43 16 23l1 2 1-17c3.99 3.99 4.59 10.66 6 16 .24.9.49 1.79.74 2.71 1.11 4.44 1.42 7.76.26 12.29-1.41-2.64-2.37-5.07-3-8-1.77 1.77-1.47 4.47-1.75 6.88-1.24 9.26-3.74 18.13-6.25 27.12h-1l-.03-2.03c-.62-35.58-.62-35.58-8.28-44.53-1.22-1.16-2.45-2.31-3.69-3.44a304 304 0 0 1-3.69-4.25c-2.34-2.69-4.74-5.28-7.31-7.75l2-1v-2c3.36-1.12 4.65-.95 8 0"/><path fill="#ECC290" d="M289 365c1.52 3.96.45 7.46-.44 11.44-1.5 7.25-1.9 14.14-1.56 21.56h2c-.1-.58-.19-1.17-.29-1.77-.98-7.25-1.06-15.52 2.29-22.23 3.26.91 4.93 1.93 7.31 4.38 2.8 6.01 2.63 12.02.96 18.41-4.02 10.87-11.77 16.83-21.77 22.21-.41.17-.41.17-2.5 1l-2-1 18-12v-4h-2v-3h-2l-1 2-1-7h-3c-1-3-1-3-.06-5.19.35-.6.7-1.19 1.06-1.81-1.15-.14-2.31-.29-3.5-.44L267 386c2.54-2.65 5.21-5.06 8-7.44 3.06-2.64 5.49-5.38 8-8.56 1.94-1.75 3.95-3.37 6-5"/><path fill="#EDC290" d="M261 149c.97.87 1.94 1.73 2.94 2.62 7.1 6.05 14.26 10.26 23.06 13.38l1-1c-.48-.52-.96-1.04-1.46-1.57-.63-.7-1.26-1.4-1.92-2.12l-1.89-2.07c-1.8-2.33-2.77-4.47-3.73-7.24l2.45 1.06c1.07.45 2.14.91 3.24 1.38 1.05.45 2.11.9 3.2 1.37 4.28 1.64 7.91 2.23 12.47 2.26 14.94.11 14.94.11 19.83 4.49 1.73 1.94 1.73 1.94 2.81 3.44l-1 2c-.7-.8-1.4-1.61-2.12-2.44-4.91-4.21-11.74-3.47-17.88-3.56v3l-5 1v2l2 2c.12 3.12.12 3.12 0 6l-3 1c-.17-.5-.17-.5-1-3h2v-2l-1.88 1.06c-.35.16-.35.16-2.12.94l-2-1v3l-2 1v3l-2 1-1 2-1 1c.5.16.5.16 3 1-3.06.54-5.89 1-9 1v-3h2l1-3 3-1-2-4h-5v-3c1.65-1.03 3.32-2.03 5-3v-2l-6-2c-.41.78-.82 1.57-1.25 2.38-1.83 2.75-2.83 3.33-5.75 4.62-7.67-14.6-7.67-14.6-9-22"/><path fill="#EAC190" d="M221 210c7.3-.29 13.77.76 20.88 2.38 1.03.22 2.06.44 3.12.67 7.6 1.68 7.6 1.68 11 3.95l-2 4c-.31-.18-.31-.18-1.86-1.09-.81-.47-1.62-.93-2.45-1.41-.4-.23-.4-.23-2.43-1.41C245 216 245 216 242 216c1.49.82 1.49.82 9 5v2l2 1-1 2 8 1v7l-6-1-1 2-2 3h-2l-1 2c-.58-.8-1.16-1.61-1.75-2.44-2.23-2.54-2.99-3.21-6.25-3.56l-1 2c-.58-.33-1.16-.66-1.75-1-2.25-1-2.25-1-6.25-1-.93-3.01-1.04-3.87 0-7 2.06-1.44 2.06-1.44 5-2 5.42 1.66 9.29 4.83 13 9-.26-3.78-.52-5.52-3.25-8.25-8.22-5.23-17.25-4.61-26.56-2.75-1.4.32-2.8.65-4.19 1 3.75-3 3.75-3 6-3v-2l5-1v-5c-.64-.12-1.28-.25-1.94-.38-.34-.1-.34-.1-2.06-.62zm34 17 1 2Z"/><path fill="#382D24" d="M330.125 199.938c3.62 3.26 5.98 7.62 7.88 12.06v2c-.71-.29-1.41-.57-2.13-.87-17.05-6.67-33.52-1.64-49.87 4.87 1.16-5.31 2.73-9.4 7-13 9.67-6.03 26.52-11.82 37.12-5.06"/><path fill="#653F2A" d="M189 107h1l1 16 2-5c2.47 2.47 2.3 3.46 2.5 6.88.21 3.56.71 6.01 2.5 9.12 3-1 3-1 5-3 .15.56.15.56.94 3.38C205 138 205 138 206 140c-.33.16-.33.16-2 1-.62 3.06-.62 3.06-1 6 1.65.5 1.65.5 10 3-.72.64-1.44 1.28-2.19 1.94-5.24 5.25-8.14 11.93-9.81 19.06h-1c.42-6.2 1.6-11.27 4-17l-2-1 3-3c-2.69-.38-2.69-.38-6 0-2.75 2.88-2.75 2.88-5 6l-2 2c.53-4.53 2.27-7.39 5-11l3-2c-4.89.12-8.07.27-12 3.38-2 2.62-2 2.62-3 5.62h-2c1.37-5.23 3.33-8.16 7-12a60 60 0 0 1 4-2c-6.62.31-11.22 1.74-17 5 1.39-4.44 3.52-6.94 7-10l3-1v-2h2c-.33-.87-.66-1.73-1-2.62-1.79-6.21-2.5-14.79.02-20.81.32-.52.65-1.03.98-1.57"/><path fill="#ECC18D" d="M278 256c3.03 2.69 4.99 5.89 7.12 9.31.71 1.11 1.41 2.22 2.14 3.37 1.7 3.24 2.38 5.71 2.74 9.32l3-1c1.76 4.97 3.33 9.74 4 15-.72-.39-1.44-.78-2.19-1.19-.93-.27-1.85-.53-2.81-.81-.82.5-1.65.99-2.5 1.5-.82.5-1.65.99-2.5 1.5-2.81-.81-2.81-.81-5-2-.43.5-.87.99-1.31 1.5C279 294 279 294 276 294l1-4c-.6-.17-1.21-.34-1.83-.52C266.96 287 266.96 287 264 283v-2c.36-.02.36-.02 2.16-.15 5.55-.43 10.56-1.09 15.84-2.85-.48-1.94-.96-3.88-1.44-5.81-.26-1.08-.53-2.16-.81-3.27-.51-1.99-1.1-3.97-1.75-5.92-.04-2.33-.04-4.67 0-7"/><path fill="#936037" d="M345.5 151.063c2.68 2.08 4.57 4.15 6.5 6.94v2l4-1c2.58 6.05 3.61 11.44 4 18-2.21-3.31-4.16-6.73-6.12-10.19-.38-.65-.75-1.31-1.13-1.98-.92-1.61-1.84-3.22-2.75-4.83.14.39.14.39.84 2.38 3.14 9.11 4.33 17.01 4.16 26.62-2.93-2.93-3.21-6.51-4.06-10.44-.35-1.54-.69-3.08-1.04-4.62q-.225-1.02-.45-2.07c-.45-1.87-.45-1.87-1.45-4.87l-1 17c-2.09-2.79-3.44-4.66-4.8-7.68-6.31-13.6-6.31-13.6-13.2-18.32q-1.53-1.47-3-3l4-2 .88 1.94c1.12 2.06 1.12 2.06 3.12 3.06l-1-5c2.08-.56 3.84-1 6-1 .6-.39 1.2-.79 1.81-1.19 2.19-.81 2.19-.81 4.69.25"/><path fill="#EDC392" d="M345 226.875c2.57 1.44 3.46 3.13 4.45 5.86 3.81 15.74-5.12 32.69-12.45 46.26-1.62 2.49-1.62 2.49-3 4h-2l1.65-13.07.57-4.45c.26-2.14.53-4.27.81-6.4.16-1.28.32-2.57.49-3.89.48-3.19.48-3.19 1.48-6.19 3 1 3 1 5 4-.52-.88-1.03-1.77-1.56-2.68-1.57-3.61-1.83-4.71-.44-8.32 3.26-4.63 3.26-4.63 6-6v-2c-3.98 1.3-5.64 2.59-8 6 .26-1.6.53-3.21.81-4.81.15-.89.3-1.78.46-2.7.96-3.27 2.17-5.39 5.73-5.61"/><path fill="#EBBF8C" d="M237.96 296.867h3.62c1.25 0 2.5 0 3.79.01 1.25-.01 2.49-.01 3.78-.01h6.95c2.48.11 4.53.41 6.9 1.13.62 2.32.62 2.32 1 5l-2 3c-8.75-.83-16.71-1.76-24.86-5.29-2.14-.71-2.14-.71-5.14.29l12 4-2 6 1 2c-1.14.58-2.27 1.16-3.44 1.75-3.43 1.94-3.43 1.94-4.5 4.5l-.06 1.75 2 1c-.33.83-.33.83-2 5-2.44-1.92-4.8-3.8-7-6 .31-1.67.64-3.34 1-5-.39-2.29-.96-3.92-2-6 0-4.43.68-8.18 3-12 2.73-1.36 4.91-1.13 7.96-1.13"/><path fill="#B7814B" d="M289 97c11.48-1.1 20.38.6 31.07 4.98 6.25 2.55 12.24 4.06 18.93 5.02-3.41 3.61-6.18 3.97-11 5 .65.46 1.31.92 1.98 1.4 5.21 3.72 10.13 7.52 14.96 11.72 5.57 4.74 11.37 7.96 18.06 10.88v1c-2.31-.16-2.31-.16-14-1 .85.56 1.69 1.11 2.56 1.69 4.97 4.09 7.95 10.48 10.44 16.31-.16.33-.16.33-1 2-1.86-2.32-3.29-4.55-4.69-7.19-2.28-4.15-5.44-7.39-8.7-10.79C346 136 346 136 346 133l3-1c-.63-.29-1.26-.59-1.91-.89-8.23-4.12-14.68-9.59-21.47-15.68-1.61-1.42-3.26-2.8-4.92-4.17-2.7-2.26-2.7-2.26-4.51-4.32-7.42-6.57-17.77-7.42-27.19-8.94z"/><path fill="#B9814B" d="M277.688 89.281c10.51 1.29 20.8.78 31.31-.28l-1 2c-13.09 3.61-25.72 2.89-39.1 1.54-7.88-.78-15.23-.78-23.02.65-.73.13-1.46.26-2.21.4-15.48 3-29.99 8.39-40.67 20.41-.99 1-1.99 2.01-3 3 1.43-7.6 5.38-12.17 11.42-16.89 19.91-13.54 43.27-13.71 66.27-10.83"/><path fill="#633E2A" d="M276 127c5.11 1.53 8.42 4.7 12.31 8.19.67.58 1.34 1.17 2.02 1.77 2.75 2.42 5.47 4.85 8.15 7.35 7.17 6.64 13.89 8.12 23.52 8.69l1-2 4 2c-11.64 4.01-19.49 3.42-31-1-2.24-1.19-4.01-2.41-6-4 1.15.99 1.15.99 7 6-2 1-2 1-4.39.36-12.13-4.45-18.13-10.49-24.61-21.36 3.52 1.56 6.27 3.69 9.25 6.12.89.73 1.78 1.45 2.7 2.2.68.55 1.35 1.11 2.05 1.68-.32-.39-.32-.39-1.94-2.38C278 138 278 138 277 136c3.11 1.47 5.9 3.2 8.75 5.12.8.54 1.6 1.08 2.42 1.64.61.41 1.21.82 1.83 1.24-3.73-5.32-7.77-9.94-12.46-14.43C276 128 276 128 276 127"/><path fill="#EABF8C" d="M252 290c.76.35 1.53.7 2.31 1.06 2.69.94 2.69.94 5.5.06.36-.18.36-.18 2.19-1.12v3l3.81 1.12c.71.21 1.42.42 2.15.64C270 295 270 295 273 293c.14.76.29 1.53.44 2.31C274 298 274 298 275 301l3-1 3 2v3c1.9-.43 3.79-.87 5.69-1.31.53-.12.53-.12 3.2-.74 3.09-.94 5.43-2.17 8.11-3.95v4c-6.19 2.27-12.05 3.61-18.59 4.47-.8.18-1.59.35-2.41.53l-1 2c-.8-.33-1.61-.66-2.44-1-3.56-1-3.56-1-7.56-.95-5.66.06-11.06-.87-16.62-1.86-1-.17-2-.33-3.03-.5-5.52-.97-10.31-2.22-15.35-4.69l1-2c3.11.5 5.88 1.33 8.81 2.44 6.81 2.36 14.06 2.82 21.19 3.56v-3l1-4h-14l1-2h2v-2l-3 1c.38-1.94.38-1.94 1-4z"/><path fill="#EFDFC6" d="M206 423c3.88 1.88 3.88 1.88 5 3 .45.07.45.07 2.75.44 4.41.76 7.53 2.08 11.25 4.56h-2v3l1-2c.82.17.82.17 5 1v2c-1.95 1.95-3.53 2.85-6 4 3.15.7 5.73 1 9 1v4l-2 1v3c.78.25 1.57.5 2.38.75 4.6 1.59 9.11 3.41 13.62 5.25v1c-14.16-1.05-25.68-8.33-35.68-18.05-2.32-1.95-2.32-1.95-5.03-3.02-.76-.31-1.51-.61-2.29-.93-1.31-3.12-1.31-3.12-2-6 1.66-.38 3.32-.71 5-1l1 1z"/><path fill="#9E6D43" d="M291 289c.82.33.82.33 5 2l2-2c3.7.08 5.62.72 8.61 2.92 3.33 4.29 3.43 8.02 3.77 13.33.08.92.16 1.85.24 2.8.39 4.81.39 4.81.38 6.95l-1 1c.17.5.17.5 1 3l-3 2c-1.19 2.12-1.19 2.12-2 4-2.06-1.44-2.06-1.44-4-4-.15-4.19.68-8.04 2-12 .2-2.19.2-2.19.25-4.56.03-.79.05-1.57.08-2.38-.11-.68-.22-1.36-.33-2.06-3.73-2.48-5.64-2.18-10.06-2.06-6.74.16-6.74.16-8.94-.94v2c-3.69-.5-5.6-1.1-8-4 1-2 1-2 3-3l1-2c.6.17 1.2.33 1.81.5 2.19.5 2.19.5 5.19.5h2z"/><path fill="#BAB8B2" d="M293 367c7.21.18 11.21 5.21 16 10 2 .67 4 1.34 6 2 2.38 1.16 4.72 2.34 7.06 3.56 9.75 5 19.83 9.22 29.94 13.44v1c-9.56-.21-18.45-2.72-27-7 .64 1.13 1.28 2.27 1.94 3.44 2.26 4.46 2.83 8.61 3.06 13.56-2.59-1.29-2.68-2.27-3.7-4.93-.32-.8-.65-1.59-.98-2.41-.67-1.68-1.32-3.36-1.96-5.05-1.72-4.17-2.85-6.85-7.13-8.68-1.07-.31-2.13-.61-3.23-.93l.12 3.75c.13 3.71-.31 4.64-2.12 8.25l-2-14h-5c-.23-.68-.46-1.35-.7-2.05-1.95-5.32-3.34-8.82-8.3-11.95z"/><path fill="#F0E1C7" d="m148 443 1 4 4 1c2.05 15.86 2.05 15.86 0 22-4.91-1.44-9-3.54-13.38-6.12-.64-.38-1.28-.75-1.94-1.13-1.56-.91-3.12-1.83-4.68-2.75 1.3-1.5 2.6-2.99 3.91-4.49C138 454 138 454 138 452h2l-1-2-2 5-2-1 1-4h-4v-5h10l1 4c1.64 3.82 1.64 3.82 4 5l2-5c-.82-.33-.82-.33-5-2v-2h4z"/><path fill="#202424" d="M206 147c5.23-.38 8.38.78 13 3v2c-1.07.23-2.15.45-3.25.69-4.98 1.74-6.52 3.86-8.84 8.5-2.85 6.18-4.03 11.23-4.47 18.06-.09 1.26-.17 2.53-.26 3.83L202 186c-1.51-1.96-2.89-3.78-4-6l-.88 3.69c-.59 2.41-1.23 4.57-2.18 6.87-.94 2.44-.94 2.44-1.32 5.56-.55 3.42-1.29 5.42-2.68 8.5-4.04 10.54-2.49 23.38-1.16 34.39.28 2.52.32 5.01.28 7.55-.01.85-.02 1.7-.02 2.57-.02.62-.03 1.23-.04 1.87h-1c-3.56-21.25-5.73-38.57 1.95-59.09 3.05-8.49 5.43-16.75 5.78-25.8C197 164 197 164 199 162v11c.31-.87.63-1.74.95-2.63 5.26-14.16 5.26-14.16 11.05-19.37-.41-.24-.41-.24-2.5-1.44-.82-.51-1.65-1.03-2.5-1.56z"/><path fill="#EEC18E" d="M248 147c2.13 1.96 3.2 3.83 4.52 6.4 2.62 4.61 6.65 8 10.48 11.6-.33.16-.33.16-2 1-1.92-1.41-3.84-2.83-5.75-4.25-.54-.4-1.08-.79-1.63-1.2-2.42-1.8-4.6-3.53-6.62-5.77-2.66-2.37-4.75-2.57-8.25-3.03-1.08-.15-2.16-.3-3.27-.45-.82-.1-1.64-.2-2.48-.3v5l5-2v4l3 1-1 4c-.56-.23-1.11-.45-1.69-.69-3.27-.44-4.65.85-7.31 2.69l-3 2-1-4-2 1c.15.29.15.29.94 1.75.99 2.09 1.58 4 2.06 6.25l-6-1c-1.24-3.73-.78-6.18 0-10l2-1-1-2c3-1 3-1 4-1l2-5-2-1c6.64-4.16 13.21-5.84 21-4"/><path fill="#222D2F" d="m221 231 5 1 1 5c1.44-.14 2.88-.29 4.31-.44.8-.08 1.6-.16 2.43-.24C236 236 236 236 239 235c1.5 4.36.5 7.12-1.11 11.23C237 248 237 248 235 250l1 2h-14c-1.33-3.33-2.67-6.67-4-10l1-1c.39-1.68.74-3.37 1.06-5.06.18-.92.36-1.84.54-2.79.13-.71.26-1.42.4-2.15"/><path fill="#CB8058" d="M162 233c2.94.19 2.94.19 6 1 1.38 2.06 1.38 2.06 2 4-.33.5-.33.5-2 3l5-1c3 4.75 3 4.75 3 7-1.76.65-3.52 1.3-5.27 1.95-2.3 1.39-2.84 2.53-3.73 5.05-.2 2.58-.2 2.58-.12 5.25 0 .45 0 .45.05 2.7.02.68.05 1.35.07 2.05-5.36-4.61-8.66-9.85-9.25-17.03 0-2.67.07-5.31.25-7.97h2c.14-.8.29-1.61.44-2.44C161 234 161 234 162 233"/><path fill="#ECC18F" d="M282 203h2c2.21 4.56 2.56 9.03 3 14 .6-.22.6-.22 3.61-1.35 1.57-.57 3.14-1.14 4.7-1.71.79-.3 1.57-.59 2.38-.9.76-.27 1.52-.54 2.3-.83.69-.25 1.39-.51 2.11-.77 1.9-.44 1.9-.44 4.9.56-2.65 1.46-3.89 2-7 2l-1 3h16v1c-.39.01-.39.01-2.34.08-8.22.45-13.57 2.1-20.28 6.73-3.14 1.57-5.05 1.04-8.38.19l-1 2c.03-.47.03-.47.19-2.88-.06-1.03-.13-2.06-.19-3.12l-3-2c-.19-3.12-.19-3.12 0-6l-2-1-1-2-3 4-1-5h2l2-4 5 1z"/><path fill="#F6E6C8" d="M310 226c6.18.9 9.93 1.91 14 7 1.49 2.97 1.43 4.67 1 8-2.43 4.13-5.01 7.34-9 10-2.48.2-2.48.2-5.19.12-.9-.01-1.8-.03-2.73-.05-.69-.02-1.37-.05-2.08-.07l1.88-2.25c4.1-5.31 4.7-9.16 4.12-15.75-.51-2.43-1.2-4.65-2-7"/><path fill="#956137" d="M331 119c-.33.17-.33.17-2 1v2h2c.27.64.54 1.28.81 1.94C333 126 333 126 336 127l-3 2c-.19 3.12-.19 3.12 0 6h-4v-2h-3v2l16 3c-2 2-2 2-5 2.44-5.24-.13-9.54-2.92-14-5.44-1.03-.56-2.06-1.11-3.12-1.69-.62-.43-1.24-.86-1.88-1.31v-2l-12-6 2-1c.76.31 1.53.62 2.31.94 2.8 1.1 4.72 1.23 7.69 1.06 0-3 0-3-1-5 .99-.11.99-.11 5.96-.68 6.14-.95 6.14-.95 8.04-.32"/><path fill="#643F29" d="M329 157c8.83 4.81 13.67 15.84 16.67 25.06.47 1.64.9 3.29 1.33 4.94l-3 1-1-2 1-2-4 1v-2h2l-1.75-2.12C338 178 338 178 336.06 174.75 334 172 334 172 331.62 171.56c-3.69-.79-4.9-2.89-7.19-5.77-1.67-2.09-3.51-3.94-5.43-5.79l2-1v-2c3.36-1.12 4.65-.95 8 0"/><path fill="#F6A30D" d="M18 238h1c.06 1.05.12 2.1.18 3.18.09 1.37.17 2.75.26 4.13l.12 2.09c.19 3.07.46 5.67 1.44 8.6-.32 1.34-.66 2.67-1 4-.07 2.08-.09 4.17-.06 6.25.01 1.08.02 2.16.02 3.27.02.82.03 1.64.04 2.48 2.5-1.38 2.5-1.38 5-3v-2h3c-.01 1.04-.02 2.08-.04 3.15-.05 7.68.01 15.22 1.04 22.85-.5.17-.5.17-3 1v-4l-2-1c-1 1-1 1-1.1 3.94.01 1.2.03 2.39.04 3.62.01 1.2.02 2.4.02 3.63.02.93.03 1.86.04 2.81h-1c-4.26-21.77-4.46-42.91-4-65"/><path fill="#F5A513" d="M25 197h1c.1 1.01.21 2.02.31 3.06.55 3.14 1.05 4.94 2.38 7.69.43 1.07.86 2.15 1.31 3.25-.33.5-.33.5-2 3l6 1-2 1v3c-.82-.33-.82-.33-5-2l1 3-1 1 2 3c1.21 3.29.84 5.63 0 9-2.49-1.2-4.68-2.45-7-4v9h-2c-5.05-10.1 2.36-30.6 5-41"/><path fill="#5E3B28" d="M327.285 200.36c4.07 3.34 6.78 6.68 8.71 11.64h-3v-2c-7.55-2.2-14-2.52-21.75-1.19-3.76.49-4 .38-7.25-2.12-2-2.69-2-2.69-3-4.69 20.65-5 20.65-5 26.29-1.64"/><path fill="#F5A514" d="M50 136c1.25 2.49.78 3.41 0 6l2 1c-.47.6-.95 1.2-1.44 1.81C49 147 49 147 48 150l-1 2c3.29.8 4.71 1.1 8 0 2 2 2 2 2 3l1 3h-2l-1 3h-5l1-3-8-1c-.5.82-.5.82-3 5l4 1v6c-2.53 2.36-3.47 3-7 3l-1-2h-2c3.44-12.03 9.77-23.21 16-34"/><path fill="#222524" d="M300 136c1.03.53 2.05 1.06 3.11 1.61 20.58 10.54 20.58 10.54 31.89 11.39-3.29 3.68-6.64 5.78-11 8h-3v4l-1 2-1.92-1.95c-4.16-2.76-7.51-2.72-12.39-2.8-.42-.01-.42-.01-2.54-.09-2.05-.07-4.1-.12-6.15-.16.33-.5.33-.5 2-3l1 1c2.33.37 4.66.7 7 1v-2c.63.02 1.26.05 1.91.07 5.76.12 10.56-.43 16.09-2.07-.42-.1-.42-.1-2.56-.63-7.79-2.12-12.89-4.52-18.44-10.37l-2.5-2.31C300 138 300 138 300 136"/><path fill="#EDBF8B" d="M224.125 211.188c1.88 1.81 1.88 1.81 2.19 4.5-.11.76-.21 1.53-.31 2.31-1.66.33-3.31.66-5 1v2c-5.24 3.27-8.17 3.11-14 2-1-3.3-1.98-6.6-3-10 6.59-3.44 13.02-4.51 20.12-1.81"/><path fill="#EAC08F" d="m320.313 208.938 3.8.03 2.89.03-4 2 1 3c.69 3.06.69 3.06 1 6l-2 2c-2.39-.02-2.39-.02-5.13-.37-.91-.11-1.82-.22-2.76-.34-.69-.09-1.39-.19-2.11-.29v-2h2v-2c-2.81.17-2.81.17-17 1 2.26-4.52 2.26-4.52 5.81-6.18.67-.33 1.33-.65 2.02-.99 4.83-1.85 9.34-1.94 14.48-1.89"/><path fill="#B8B6B1" d="M147 427c9.31 8.26 12.6 26.13 14 38 .13 3.02.1 5.97 0 9l-8-4c.01-.38.01-.38.07-2.32.21-12.57-1.24-24.24-5.27-36.17-.8-2.51-.8-2.51-.8-4.51"/><path fill="#EDBF8B" d="M221 210c7.3-.29 13.77.76 20.88 2.38 1.03.22 2.06.44 3.12.67 7.6 1.68 7.6 1.68 11 3.95l-2 4c-.31-.18-.31-.18-1.86-1.09-.81-.47-1.62-.93-2.45-1.41-.8-.46-1.6-.93-2.43-1.41C245 216 245 216 242 216c1.49.82 1.49.82 9 5v2l2 1c-3.17 0-4.28-.49-7-1.94-7.99-4.22-16.27-3.61-25-2.06l2-2h3v-5c-.64-.12-1.28-.25-1.94-.38-.68-.2-1.36-.41-2.06-.62z"/><path fill="#BAB8B3" d="M312 418c1 3 1 3-.12 5.75-6.24 11.55-12.75 21.33-24.88 27.25l-2.56 1.28c-4.37 2.07-4.37 2.07-6.44 2.72l-2-1c.88-.67 1.77-1.33 2.68-2.02 13.02-9.95 23.46-20.92 33.32-33.98"/><path fill="#643E29" d="m203 136 3 4c-.33.16-.33.16-2 1-.62 3.06-.62 3.06-1 6l10 3-2.19 1.94c-5.24 5.25-8.14 11.93-9.81 19.06h-1c.42-6.2 1.6-11.27 4-17l-2-1 3-3c-2.69-.38-2.69-.38-6 0-2.75 2.88-2.75 2.88-5 6l-2 2c.53-4.53 2.27-7.39 5-11l3-2c-4.89.12-8.07.27-12 3.38-2 2.62-2 2.62-3 5.62h-2c1.26-4.83 3.09-8.82 7-12 3.94-1.85 7.64-3 12-3z"/><path fill="#A57347" d="m243 288 2 3c1.33.36 2.66.7 4 1l1 2h2v2c-5.12 1.69-9.36 2.22-14.81 2.12-1.31-.01-2.61-.03-3.96-.05-1.07-.02-2.13-.05-3.23-.07h-2l-1 3-3 1c-.42-4.33-.54-6.31 2.19-9.81 5.11-3.98 10.36-5.37 16.81-4.19"/><path fill="#5E3C28" d="M201 154h3c-.2.75-.41 1.5-.62 2.27-1.73 6.59-2.94 12.93-3.38 19.73-2.14-3.2-2.23-4.02-2.12-7.69.01-.81.03-1.61.05-2.45.02-.61.05-1.23.07-1.86l-.18 2.3c-.09.99-.17 1.99-.26 3.01-.08.99-.16 1.97-.24 2.99-.6 5.06-.6 5.06-2.85 7.06-.65.46-1.3.92-1.97 1.39-3.92 2.81-7.68 5.78-11.42 8.83-2.08 1.42-3.63 1.99-6.08 2.42 3.34-3.44 6.78-6.51 10.55-9.47 1.76-1.85 1.97-3.05 2.45-5.53 1.92-5.64 3.62-9.88 8-14 1.79-2.93 3.41-5.95 5-9"/><path fill="#242624" d="M230 198v2c-.8-.02-1.59-.05-2.41-.07-8.7-.15-14.54.59-21.59 6.07-1.88 2.75-1.88 2.75-3 5 .56-.22 1.12-.43 1.7-.66 16.65-5.78 33.82-.52 50.3 3.66-1.81-4.06-3.21-6.63-7-9l-3-2c4.14.19 5.7.72 8.75 3.62 2.46 3.27 3.38 6.42 4.25 10.38-4.47-.98-8.93-1.97-13.37-3.07-16.19-3.87-31.33-5.62-46.63 2.07 2.1-7.15 6.09-12.55 12.5-16.5 5.96-2.7 13.1-1.8 19.5-1.5"/><path fill="#9A683D" d="M199 301c2 2 2 2 2.44 4.06.09.32.09.32.56 1.94l3 1 1 3c.56-.37 1.11-.74 1.69-1.12 2.31-.88 2.31-.88 5-.38 2.31 1.5 2.31 1.5 3.12 4.62.06.95.13 1.9.19 2.88l2-1c.33.5.33.5 2 3l8-5c-.81 2.94-.81 2.94-2 6l-3 1v2h-2l1 6c-22.7-19.25-22.7-19.25-23.38-25.44.13-.84.25-1.69.38-2.56"/><path fill="#EDC08C" d="m214 152 3 1-1.36 1.29C207.51 162.71 204 173.39 204 185h4l1 3c-2.31 3.19-2.31 3.19-5 6h-2c-.16-.5-.16-.5-1-3-.5.16-.5.16-3 1-.39-1.58-.76-3.16-1.12-4.75-.21-.88-.42-1.76-.64-2.67-.27-2.91.22-4.15 1.76-6.58l3 6c.04-.51.04-.51.23-3.08.9-10.16 2.54-19.95 10.28-27.31z"/><path fill="#CC845D" d="M291 374c3.26.91 4.93 1.93 7.31 4.38 2.92 6.25 2.45 12.78.69 19.37-.33.74-.66 1.49-1 2.25-1.07-3.2-1.07-5.66-1-9l-9 1c.31-2.63.62-5.25.94-7.88.08-.74.17-1.49.26-2.26.69-5.63.69-5.63 1.8-7.86"/><path fill="#213034" d="M304 229c2.06.44 2.06.44 4 1-.63 2.93-1.59 5.36-3 8h5c-.5 4.33-1.12 7.64-4 11-3.69.81-3.69.81-7 1-2.5-2.94-3.47-5.18-4-9h4c-.19-.62-.37-1.24-.56-1.88C298 237 298 237 299 235h4l-.06-2.44C303 230 303 230 304 229"/><path fill="#ECBF8B" d="m285 391 2 1v6h2v-6l8-1c1.21 4.97.87 8.24-1 13-4.83 7.25-12.94 12.78-21 16l-2-1 18-12v-4h-2v-3h-2l-1 2c-2.12-7.62-2.12-7.62-1-11"/><path fill="#202627" d="M237 132c4.09 1.54 5.86 4.14 8.38 7.62.78 1.09 1.57 2.18 2.36 3.27.75 1.02 1.49 2.05 2.26 3.11 1.16 1.48 2.33 2.96 3.5 4.44 2.11 2.79 3.28 4.98 3.5 8.56-3.98-2.87-6.52-5.77-9-10v-2c-13.63.78-13.63.78-20 3l-1-2c3.48-2.05 6.77-2.57 10.75-3.12 1.17-.17 2.34-.34 3.55-.51.89-.12 1.78-.25 2.7-.37-3.26-5.79-3.26-5.79-6.44-6.69-4.82 1.3-7.09 4.98-9.75 9-.6.89-1.19 1.78-1.81 2.69h-2c1.94-6.96 5.34-10.68 11-15z"/><path fill="#BB7A55" d="M278 260c3.97 4.57 6.45 10.23 7.62 16.12-.8 3.73-2.59 5.57-5.21 8.27C279 286 279 286 278 289c-5.25.66-8.15-.93-12.46-3.61L264 284v-3c.36-.02.36-.02 2.16-.15 5.55-.43 10.56-1.09 15.84-2.85-.2-.8-.41-1.59-.62-2.41-.27-1.06-.54-2.12-.82-3.21-.26-1.05-.53-2.09-.81-3.17-.71-3.06-1.27-6.1-1.75-9.21"/><path fill="#F2AD34" d="M236 18c5.4-.05 10.81-.09 16.21-.11 1.83-.01 3.66-.02 5.49-.04 11.62-.11 22.81.35 34.3 2.15v1c-.89-.01-1.79-.01-2.71-.02-3.31-.01-6.63-.03-9.94-.03l-4.31-.03c-2.06-.01-4.12-.01-6.18-.02-.63 0-.63 0-3.77-.01C262 21 262 21 259 22l-1 2h-4c.5.45.99.91 1.5 1.38C257 27 257 27 257 29h-8l-1-9-12-1z"/><path fill="#926035" d="M158 163h1c.11.56.11.56.69 3.38.43 1.19.86 2.39 1.31 3.62.82.33.82.33 5 2l-7 12-1-4-1 2h-2c-.06.74-.12 1.47-.18 2.23-.09.98-.17 1.95-.26 2.96-.08.96-.16 1.92-.24 2.92-.3 2.68-.75 5.26-1.32 7.89h-1c-.46-12.36.48-23.69 6-35"/><path fill="#D08861" d="m279 151 2.45 1.06c1.07.45 2.14.91 3.24 1.38.53.22.53.22 3.2 1.37 4.28 1.64 7.91 2.23 12.47 2.26 14.94.11 14.94.11 19.83 4.49 1.73 1.94 1.73 1.94 2.81 3.44l-1 2c-.7-.81-1.4-1.62-2.12-2.46-5.06-4.21-11.71-3.24-17.94-3.23-2.51-.01-5.03-.04-7.54-.07h-3.36c-3.13-.25-5.26-.79-8.04-2.24-4-5.19-4-5.19-4-8"/><path fill="#966237" d="M345.438 151.125c2.77 2.03 4.61 4.06 6.56 6.88v2c1.32-.34 2.64-.66 4-1 2.58 6.05 3.61 11.44 4 18-2.2-3.31-4.16-6.74-6.12-10.19-.38-.66-.75-1.31-1.13-1.98-.92-1.61-1.83-3.22-2.75-4.83.33 1.31.66 2.63 1 4-3.16-1.37-3.99-1.99-6-5-.33.65-.66 1.31-1 2l-6-2v-4h2v-4c3-1 3-1 5.44.12"/><path fill="#F4E2C3" d="M220 228c-.16.62-.33 1.24-.5 1.88-1.11 6.94-1.46 13.03 2.5 19.12l2 2c-6.15-.37-8.73-1.83-13-6-1.57-3.15-1.35-5.52-1-9 2.15-3.66 5.48-8 10-8"/><path fill="#EBC08D" d="M261 149c.97.87 1.94 1.73 2.94 2.62 7.1 6.05 14.26 10.26 23.06 13.38-3.94 1.22-6.16.48-10-1-.41.78-.82 1.57-1.25 2.38-1.83 2.75-2.83 3.33-5.75 4.62-7.67-14.6-7.67-14.6-9-22"/><path fill="#F3A417" d="m422 419 2 1h2c-.25 1.88-.25 1.88-1 4-1.32.7-2.65 1.37-4 2l-1 3c-1.5 1.54-1.5 1.54-3.44 3.19-.71.6-1.42 1.2-2.15 1.83C402.3 444 402.3 444 401 444c-.19-2.81-.19-2.81 0-6 1.38-1.56 1.38-1.56 3-3 1.19-2.69 1.19-2.69 2-5h4c3-1 3-1 4.19-3.06.27-.64.53-1.28.81-1.94l2 2 3-1-.12-2.38C420 421 420 421 422 419"/><path fill="#F5A718" d="M323 28c5.95.67 11.3 2.76 16.88 4.81.95.35 1.91.69 2.89 1.04 5.62 2.06 10.93 4.36 16.23 7.15l-2 2-5-2-2 2-1-3c-2-1-2-1-5-1l-3-1v-2c-.74.33-1.49.66-2.25 1-2.75 1-2.75 1-6.75 1l1 3h-3c-1-3-1-3-.44-5.06.15-.64.29-1.28.44-1.94l-2-2-3 1v-2h-2z"/><path fill="#925F35" d="m285 103 4 1v3l-1 1 3 1-2 3c-.38 1.66-.73 3.32-1 5l3 1-2 1-2-1v-3h-4l-1 3 2 1h-3l-1-7c-8-2.55-15.63-3.61-24-4 4.59-3.06 8.59-3.55 14-3 4.51 1.16 7.83 2.52 11 6l3-1-1-2 2-1z"/><path fill="#F7AC2C" d="M493 238h1c.02 5.12.04 10.25.05 15.37l.03 5.22c.01 2.51.01 5.02.02 7.53 0 .77.01 1.54.01 2.33 0 4.94-.41 9.66-1.11 14.55l-1-4c-.66.17-.66.17-4 1l.06-2.38C488 275 488 275 487 273c.15-.42.15-.42.94-2.56 1.15-3.73 1.11-6.54.84-10.39.22-2.05.22-2.05 1.7-3.43 1.86-1.99 1.93-2.95 2.03-5.63.04-.76.07-1.52.11-2.3.02-.78.04-1.57.07-2.38.03-.79.07-1.59.1-2.41.08-1.97.15-3.93.21-5.9"/><path fill="#F6E5C8" d="M239 233c7.31 2.11 7.31 2.11 9 5-.1 5.29-1.33 8.22-5 12-3.21 1.61-6.44 1.06-10 1 .62-.7 1.24-1.4 1.88-2.12 3.81-5.16 4.37-9.55 4.12-15.88"/><path fill="#CE845C" d="M248 147c2.15 1.95 3.19 3.83 4.52 6.4 2.62 4.61 6.65 8 10.48 11.6-.33.16-.33.16-2 1-1.92-1.41-3.84-2.83-5.75-4.25-.54-.4-1.08-.79-1.63-1.2-2.44-1.81-4.69-3.62-6.82-5.78-3.41-3.35-7.43-3.04-11.99-3.33-1.27-.09-2.54-.17-3.85-.26-.98-.06-1.95-.12-2.96-.18 5.18-5.18 13.15-5.41 20-4"/><path fill="#E8BD8C" d="M210 398h2v2l3 1c1.69 1.44 1.69 1.44 3 3v2l2 1v2c.68.23 1.36.45 2.06.69 3.09 1.03 6.17 2.08 9.25 3.12 1.07.36 2.15.72 3.25 1.08.51.18.51.18 3.12 1.07.94.32 1.89.64 2.87.97 2.43 1.06 3.75 2.07 5.45 4.07-10.85-2.02-20.7-6.23-30.56-11.06l-2.06-1c-3.74-1.87-6.62-3.79-9.38-6.94l6-1z"/><path fill="#252724" d="M164.25 230.313c5.24 1.31 8.31 5.59 11.27 9.91 3.4 5.72 5.11 10.57 3.79 17.28-.32 3.65-.18 4.2 1.63 7.12 2.03 3.32 2.52 4.62 2.06 8.38l-1-2c-2.03-.26-4.05-.51-6.09-.66-1.91-.34-1.91-.34-3.91-2.34h8c-.66-1.1-1.32-2.19-2-3.31-2.63-5.16-2.37-10.03-2-15.69l-4-2h4l-3-6-7 1c.52-.6 1.03-1.2 1.56-1.81.48-.73.95-1.45 1.44-2.19l-1-3c-.99-.17-.99-.17-6-1l-2 5c-.69-1.75-.69-1.75-1-4 1.39-2.77 2.27-3.78 5.25-4.69"/><path fill="#633E28" d="m225 111 2 1-2.69 2.75c-4.88 5.66-7.7 13-9.31 20.25l2 1c-6.75 2.12-6.75 2.12-9 1 .34-6.37 1.79-11.07 6-16h2c1.4-1.68 1.4-1.68 2.94-3.88 1.96-2.79 3.15-4.18 6.06-6.12"/><path fill="#966236" d="m204 123 2 1v2c.45-.5.91-.99 1.38-1.5C209 123 209 123 211 123c-.65 4.19-1.51 8.26-2.56 12.38-.27 1.05-.54 2.11-.82 3.21-.2.79-.41 1.59-.62 2.41-2.25-2.69-3.88-4.65-5-8l-4 2-2-5h2c.25-.6.5-1.2.75-1.81 1.41-2.48 2.9-3.62 5.25-5.19"/><path fill="#B8AF9D" d="M236.188 225c5.2 1.85 10.25 5.77 13.81 10-.31 2.69-.31 2.69-1 5l-2.25-2.44c-2.5-2.33-3.47-3.2-6.75-3.56l-1 2c-.57-.33-1.15-.66-1.75-1-2.25-1-2.25-1-6.25-1-.93-3.01-1.04-3.87 0-7 3-2 3-2 5.19-2"/><path fill="#3D3125" d="M240 137c2.54 2.61 3.85 4.54 5 8a478 478 0 0 0-6.81.88c-1.27.16-2.53.32-3.83.49C231 147 231 147 228 149l-1 3h-4v-3h3c.25-.72.5-1.44.75-2.19 2.56-5.75 6.4-10.98 13.25-9.81"/><path fill="#BBB9B3" d="M361 434c5.26 5.26 6.21 15.01 6.33 22.25-.06 8.21-.06 8.21-1.33 10.75l-3-1c-1.27-10.71-2.35-21.2-2-32"/><path fill="#F4A81F" d="M23 305c3.61 2.4 3.85 3.95 5 8l1-4 2 1c.81 3.92 1.38 7.18 0 11h2c.2 2.02.39 4.04.59 6.05C34 329 34 329 36 331c-2 2-2 2-5 4-.97-3.12-1.92-6.25-2.88-9.38-.26-.87-.53-1.74-.81-2.63C25.5 317.04 24.1 311.11 23 305"/><path fill="#F4E4C8" d="M310 226c6.18.9 9.93 1.91 14 7 1.43 2.87 1.31 4.81 1 8-1.88 3.38-1.88 3.38-4 6h-2v-5l-2-1c.63-2.93 1.59-5.36 3-8l-7-2-1 2z"/><path fill="#C0BDB5" d="M205 431c4.37 1.46 7.33 3.71 10.88 6.62 9 7.18 19.15 12.8 30.12 16.38v1c-15.09-1.12-27.56-9.47-38-20a97 97 0 0 1-3-4"/><path fill="#9F6A4B" d="M337 249c3 1 3 1 5.06 3.88 1.21 2.94 1 3.97-.17 7C338 267 338 267 336 269c-.23 2.18-.41 4.37-.56 6.56-.09 1.2-.17 2.4-.26 3.63L335 282c-.5.17-.5.17-3 1l1.65-13.08.57-4.45c.26-2.13.53-4.26.81-6.4.16-1.28.32-2.56.49-3.88C336 252 336 252 337 249"/><path fill="#613D29" d="M251 128c3.92 2.07 5.97 4 8.38 7.69 4.31 6.21 9.37 11.56 14.6 17 .64.66 1.27 1.32 1.92 2 .57.59 1.15 1.18 1.74 1.79C279 158 279 158 280 160c-5.43-1.53-8.99-5.24-13-9-.65-.6-1.3-1.19-1.96-1.8-3.61-3.43-6.18-6.49-8.04-11.2v-2h-2c-4-5.41-4-5.41-4-8"/><path fill="#F7A81A" d="m474 345 2 3c-.55 2.04-.55 2.04-1.67 4.34-.4.84-.8 1.67-1.21 2.53-.43.87-.86 1.74-1.31 2.63-.41.87-.82 1.74-1.25 2.63-3.41 7.01-3.41 7.01-6.56 9.87l-3-1-1-3c1.44-2.69 1.44-2.69 3-5l-4-2 1-2h4v3c3.79-2.52 4.26-4.87 6-9 1.62-1.75 1.62-1.75 3-3z"/><path fill="#CC825A" d="M278 256c3.03 2.69 4.99 5.89 7.12 9.31.71 1.11 1.41 2.22 2.14 3.37 1.72 3.28 2.56 5.63 2.74 9.32-3.27 4.2-7.64 7.01-12 10 1.13-2.55 2.25-4.28 4.12-6.38 2.35-3.28 2.25-4.64 1.88-8.62-1.31-3.29-1.31-3.29-3-6.62-3-5.96-3-5.96-3-10.38"/><path fill="#F4A619" d="M425 89c7.02 5.46 12.39 12.16 18 19-3.23 1.78-5.33 2-9 2-2.24-1.67-2.93-2.59-3.41-5.38l-.18-5.24c-.48-2.8-1.34-3.53-3.41-5.38v-2h-2z"/><path fill="#222524" d="m240 112 2 1c-.81.68-1.62 1.36-2.45 2.05C229.4 123.8 225.07 131.87 222 145c-2-2-2-2-2.15-4.03.93-10.74 4.99-17.63 13.16-24.57C235 115 235 115 237 115v-2z"/><path fill="#F4A211" d="m73 394 7 2v5l-7-1-1 4 3 1v3l5-2-2 7c-4.87-4.57-8.89-9.75-13-15 3.23-2.15 4.28-2.2 8-2z"/><path fill="#EBC08E" d="M327 172c4.59 4.07 7.22 8.56 10 14l-3 3h-4v-2h-2l-3-6h-3l1-3 6-1z"/><path fill="#F5A410" d="M293 21c7.74.44 15.73 1.16 23 4l1 3h-10l-1 2-4-1 1 5h-2v-2l-3-1c.17-.6.33-1.2.5-1.81.5-2.19.5-2.19.5-5.19h-6z"/><path fill="#F8A617" d="M484 305h5c-1.31 7.11-3.02 14.05-5 21l-1-4h-2v3h-3v-4h2v-3l-3 1v-2h2v-2c1.38-1.62 1.38-1.62 3-3h2z"/><path fill="#262B2A" d="m296 231 4 2-1 8-3 1 3 7c2.34-.26 4.68-.59 7-1l1-2 3 1-2 3 5 1v1c-2.42.16-4.83.28-7.25.38-.68.05-1.36.1-2.07.15-2.01.06-2.01.06-5.68-.53-4.76-5.57-5.11-10.03-5-17l2-1z"/><path fill="#EEC18F" d="M212 210c4.34-.26 7.97-.4 12.06 1.19 1.94 1.81 1.94 1.81 2.25 4.5L226 218c-4.07 2.04-6.59 2.03-11 1v-4l-4-2z"/><path fill="#976E50" d="M307 212c-2.65 1.46-3.89 2-7 2l-1 3h16v1c-.79.05-1.57.1-2.38.15-5.81.41-11.1.97-16.62 2.85l-1-3-2.75 2.56c-2.92 2.47-2.92 2.47-5.63 2.25-.53-.27-1.07-.53-1.62-.81.25-1.87.25-1.87 1-4 1.75-1.16 1.75-1.16 4-2.06.81-.33 1.61-.65 2.45-.99.84-.31 1.68-.63 2.55-.95.82-.31 1.64-.63 2.49-.95 6.08-2.19 6.08-2.19 9.51-1.05"/><path fill="#5E3C29" d="M300 136c1.03.53 2.05 1.06 3.11 1.61 7.81 4 15.51 7.69 23.89 10.39v1c-.55.07-.55.07-3.31.44C320 150 320 150 317 151c-7.11-2.7-12.15-7.18-17-13z"/><path fill="#C3BFB6" d="M164 402c4.56 3.56 8.03 7.27 11.5 11.88.96 1.24 1.91 2.48 2.87 3.72.45.59.91 1.17 1.37 1.78 6.34 8.16 6.34 8.16 9.26 9.62v2c-7.58-3.53-12.75-9.63-17.88-16.06-.47-.59-.95-1.18-1.44-1.79-2.78-3.57-4.5-6.7-5.68-11.15"/><path fill="#A06D40" d="M229 315c.69 2.49 1 4.38 1 7h2v6l-3 1-1 2h-5c-1.76-3.09-2-4.23-2-8h2v-2c1.31-1.44 1.31-1.44 3-3l1.69-1.69z"/><path fill="#C97E56" d="M172 248c2.62.38 2.62.38 5 1v9l-4 1a97 97 0 0 0-3 4h-2c-1.2-5.45-.98-8.26 2-13z"/><path fill="#CE8158" d="m174 241 2 6c-6.4 3.08-6.4 3.08-9.44 2.69q-.765-.345-1.56-.69v-2h-2v3h-2l-1-5 5-1v-2c3.35-2.11 5.22-2.05 9-1"/><path fill="#F5AA24" d="M471 155c3.36 3.83 4.97 8.32 6.81 13 .34.81.68 1.61 1.02 2.45.31.78.62 1.56.94 2.36.14.36.14.36.86 2.15.48 2.63-.25 3.81-1.63 6.04l-1-7h-4c.17-.3.17-.3 1-1.81 1-2.19 1-2.19 1-5.19-2 1-2 1-4 4h-2c-.06-.31-.06-.31-.38-1.88C469 167 469 167 467 165v-2l4-2z"/><path fill="#F7A40F" d="M480 179c2 1 2 1 3.07 3.87.17.59.17.59 1.05 3.57.36 1.17.71 2.35 1.08 3.56.8 3 .8 3 .8 5-3.38.62-3.38.62-7 1l-2-2c.38-3.62.38-3.62 1-7l-2-1 2-5h2z"/><path fill="#A16F44" d="m282 338 1 2h2v4h2l1 4c-4.75 3-4.75 3-7 3l-1-3c-1.88-.81-1.88-.81-4-1l-3 2 2-10 2 4 1-2h2v-2z"/><path fill="#905E35" d="M317 120h8l-3 5h3l1-2 1 3c-1 1.82-1 1.82-2.44 3.69-.47.62-.94 1.24-1.43 1.88-.37.47-.75.95-1.13 1.43l-4-1v-2l-12-6 2-1c.76.31 1.53.62 2.31.94 2.8 1.1 4.72 1.23 7.69 1.06 0-3 0-3-1-5"/><path fill="#9E6F45" d="M190 252c1.37 2.74 1.13 4.97 1 8l-1 2 3 1 1 2-1 3c.94 2.19.94 2.19 2 4l-4-1v7h-1v-7h-2c-.44-2.41-.86-4.83-1.25-7.25-.13-.68-.26-1.36-.39-2.07-.31-2.01-.31-2.01-.36-5.68 1.95-2.48 1.95-2.48 4-4"/><path fill="#5691A4" d="m226 241 2 3 3-1 1-2h5c-.84 3.15-1.5 5.47-3.75 7.88-3.05 1.52-4.89 1.68-8.25 1.12-2.38-2.31-2.38-2.31-4-5v-3c3-1 3-1 5-1"/><path fill="#F5A71A" d="M398 65c4.79 3.54 9.46 7.14 14 11l-2 2-1-1-4 2-1-2-2 2v-2h-2v-2l-2-1c-1.28-3.25-.83-5.67 0-9"/><path fill="#F6AB20" d="M368 46c6.24 3 12.21 6.2 18 10-2.14 2.14-3.13 2.43-6 3l-1-2-1 2h-2l-1 2v-4h-2l-2-6h-3z"/><path fill="#9D6A3D" d="M193 98c0 3.45-.75 4.42-2.5 7.31-4.2 8.09-3.11 16.97-1.5 25.69l-5-1c-1.83-11.6.61-20.21 7-30z"/><path fill="#976338" d="M323 158c3.69 0 5.92.2 8.92 2.43 5.27 5.43 6.8 11.24 8.08 18.57-3.52-3.16-5.92-7.17-8.51-11.09-2.54-3.75-5.21-6.82-8.49-9.91"/><path fill="#F6A91D" d="m41 357 3 1 1 3c.31-.1.31-.1 1.88-.62.35-.07.35-.07 2.12-.38 2.22 2.22 2.93 4.08 4 7h-2c.16.91.33 1.81.5 2.75.5 3.25.5 3.25.5 7.25-2.16-2.01-3.66-3.9-5.04-6.5-.18-.33-.18-.33-1.07-2-.35-.68-.71-1.36-1.08-2.06-.37-.69-.73-1.37-1.11-2.08-2.7-5.1-2.7-5.1-2.7-7.36"/><path fill="#ECC18E" d="m327 209-4 2 1 3c.69 3.06.69 3.06 1 6l-2 2c-2.38-.02-2.38-.02-5.12-.38-.92-.11-1.83-.22-2.76-.33-.7-.1-1.4-.19-2.12-.29v-2c.78-.27 1.57-.54 2.38-.81C318 217 318 217 320 214l-4-2c2.78-4.17 6.47-3.22 11-3"/><path fill="#AC794D" d="M252 290c.76.35 1.53.7 2.31 1.06 2.69.94 2.69.94 5.5.06.72-.37 1.45-.74 2.19-1.12v3l4 2c-3.52 3.52-8.13 3.06-12.88 3.06A283 283 0 0 1 249 298l1-2h2v-2l-3 1c.38-1.94.38-1.94 1-4z"/><path fill="#C97E56" d="M344 237h2c1.7 12.67 1.7 12.67-2 18-2.48-2.48-3.66-4.76-5-8 .11-4.38 2.04-6.86 5-10"/><path fill="#D2885F" d="m214 152 3 1c-.45.43-.89.85-1.36 1.29-7.44 7.7-10.42 17.41-12.64 27.71h-1c-.78-10 1.69-19.11 8-27 2.06-1.94 2.06-1.94 4-3"/><path fill="#E7BC89" d="M284 284h1v6c1.94-.81 1.94-.81 4-2l1-3-2-1h3v2h2v2l4 1-1 3c-.56-.39-1.11-.78-1.69-1.19-.76-.27-1.52-.53-2.31-.81-.8.5-1.61.99-2.44 1.5-.84.5-1.69.99-2.56 1.5-2.81-.81-2.81-.81-5-2-.43.5-.87.99-1.31 1.5C279 294 279 294 276 294l1-4-2-1a96 96 0 0 1 6-3l2 1z"/><path fill="#CD8159" d="M158 247h3v3h2v-3c2 0 2 0 3.69 1.25.43.58.86 1.16 1.31 1.75-.31 1.34-.65 2.67-1 4q-.105 2.625-.06 5.25c0 .45 0 .45.02 2.7.02.68.03 1.35.04 2.05-4.61-3.97-7.06-8.22-9-14z"/><path fill="#96663E" d="m236 289-1.06 2.88C234 295 234 295 235 297c-4.75 1-4.75 1-7 1l-1 3-3 1c-.42-4.33-.54-6.31 2.19-9.81 6.33-4.93 6.33-4.93 9.81-3.19"/><path fill="#232725" d="M98 399v4a49.4 49.4 0 0 1-6.12 4c-4.4 2.55-8.68 5.14-12.88 8l-1-4c15.23-12 15.23-12 20-12"/><path fill="#E7D9C2" d="m179 362-2 2-3-1-.15 1.93c-.07.83-.15 1.66-.23 2.51-.06.82-.13 1.64-.21 2.49-.13.69-.27 1.37-.41 2.07-.33.17-.33.17-2 1v8c-2.64-1.32-3.02-2.66-4.25-5.31-.38-.78-.75-1.56-1.14-2.37-.61-2.32-.61-2.32.11-4.44 3.5-5.13 7.04-7.62 13.28-6.88"/><path fill="#935F36" d="m330 124 6 3-3 2c-.19 3.12-.19 3.12 0 6h-4v-2h-3v2l16 3c-2 2-2 2-5 2.44-5.15-.12-9.72-2.74-14-5.44l-1-2c2.64-1.41 5.07-2.37 8-3z"/><path fill="#A17149" d="M326 291c1.82 5.45-1.59 11.06-3.98 16.05-.96 1.64-.96 1.64-3.02 3.95-2.75.38-2.75.38-5 0 .25-2.88.25-2.88 1-6 1.94-1.12 1.94-1.12 4-2 1.25-2.12 1.25-2.12 2-4l1 1c-.08-.93-.17-1.86-.25-2.81.25-3.19.25-3.19 2.25-5.07z"/><path fill="#F7A615" d="M455 126c4.28 4.78 7.04 10.36 10 16l-3 2c-2-3-2-3-2-6-.56.14-1.11.29-1.69.44-.38.09-.38.09-2.31.56-.82.25-1.65.5-2.5.75-2.5.25-2.5.25-4.81-1.19-.56-.51-1.12-1.03-1.69-1.56.99.16.99.16 6 1v-2h2c.95-3.7.95-6.3 0-10"/><path fill="#5590A3" d="M295 241h4l2 3c3-1 3-1 5-3l3 1c-1.62 5.75-1.62 5.75-5 8-2.5.38-2.5.38-5 0-2.78-2.68-3.48-5.24-4-9"/><path fill="#F5A512" d="M417 81c1.15.95 2.29 1.91 3.44 2.88.64.53 1.27 1.06 1.93 1.61C424 87 424 87 425 89c-.33.16-.33.16-2 1v3h2v2h-3v4h2l1 3-2 1c-1.35 1.31-2.69 2.64-4 4l-2-2h2c1.45-2.91 1.02-5.6.94-8.81C420 94 420 94 421 91h-2v-2l-2-1 1-3c-.44-2.19-.44-2.19-1-4"/><path fill="#23231F" d="M330.125 199.938c3.62 3.26 5.98 7.62 7.88 12.06v2c-1-.33-1.99-.66-3-1-.27-.7-.54-1.4-.82-2.12-1.78-4.31-4.93-8.75-9.18-10.88-10.19-1.09-20.46 1.68-30 5 6.77-8.1 26.28-10.59 35.12-5.06"/><path fill="#B6804E" d="M158 163c1.41 3.85.61 6.82-.25 10.75-.28 1.33-.57 2.66-.85 3.99-.07.34-.07.34-.45 2.09-.77 3.69-1.45 7.4-2.14 11.11q-.195 1.05-.39 2.13c-.31 1.64-.62 3.29-.92 4.93h-1c-.46-12.36.48-23.69 6-35"/><path fill="#262825" d="M260 154h3c.82 1.75 1.63 3.5 2.44 5.25.22.49.22.49 1.37 2.95.97 2.29 1.69 4.37 2.19 6.8-11.38-6.74-11.38-6.74-12.75-11.75-.08-.74-.17-1.49-.25-2.25.5.33.5.33 3 2z"/><path fill="#CD8860" d="M261 149c.97.87 1.94 1.73 2.94 2.62 7.1 6.05 14.26 10.26 23.06 13.38-4.52 1.46-7.75-.07-12-1.75-.71-.27-1.42-.53-2.16-.8-7.08-2.73-7.08-2.73-9.84-5.45-1.07-2.64-1.45-5.18-2-8"/><path fill="#BD864E" d="M173 142c-.85.52-1.69 1.03-2.56 1.56-8.87 6.03-13.94 14.46-19.44 23.44l-1-2c3.55-8.38 9.15-16.93 16-23 3.13-1.04 3.99-.93 7 0"/><path fill="#A37146" d="M254 339c.62.47 1.24.95 1.88 1.44C258 342 258 342 260 343v5l4 2 1-3 1 5 3 1c-1.6.03-3.21.05-4.81.06-.45.01-.45.01-2.71.04C259 353 259 353 256 352c.08-.91.17-1.81.25-2.75C256 346 256 346 254 343.62c-.66-.53-1.32-1.07-2-1.62z"/><path fill="#A27146" d="M239 330c2.44 1.93 4.8 3.8 7 6-.38 2.62-.38 2.62-1 5l-3 1-1 2c-3-1-3-1-4.38-3.62-.83-4.53.29-6.35 2.38-10.38"/><path fill="#272927" d="M232 299c3.13.5 5.97 1.33 8.94 2.41 5.6 1.89 11.29 2.83 17.12 3.78.53.09.53.09 3.2.53 2.58.44 5.16.86 7.74 1.28v1c-8.77-.24-17.17-1.01-25.75-2.94-.76-.17-1.52-.34-2.31-.51-3.53-.84-6.79-1.7-9.94-3.55z"/><path fill="#774E31" d="M345 151c2.96 2.81 5.44 5.18 7 9l4-1c2.58 6.05 3.61 11.44 4 18-2.18-3.28-4.16-6.65-6.12-10.06-.19-.32-.19-.32-1.13-1.93-2.75-4.78-2.75-4.78-2.75-7.01h-2c-3-4.38-3-4.38-3-7"/><path fill="#F4A921" d="m436 408 1 3-10 10c-.56-1.94-.56-1.94-1-4l1-1-2-1v-3l-4-2v-1c3.38-.19 3.38-.19 7 0 2 3 2 3 2 4 .22-.25.22-.25 1.31-1.5C433 410 433 410 436 410z"/><path fill="#F3E1C3" d="M293 232c1 3 1 3 .88 6.81-.07 4.07 1.03 6.67 3.12 10.19l1 2c-2.81 0-2.81 0-6-1-2.57-3.73-3.02-7.35-2.88-11.81.85-3.08 1.36-4.32 3.88-6.19"/><path fill="#6C432B" d="M276.234 107c2.63 1.49 4.14 3.5 5.77 6-.61-.2-1.21-.41-1.83-.62-.8-.27-1.6-.54-2.42-.82-.79-.26-1.58-.53-2.4-.81-4.41-1.41-8.46-1.99-13.1-2.31-1.17-.09-2.35-.17-3.55-.26l-2.7-.18c6.48-4.32 13.25-3.86 20.23-1"/><path fill="#BB8441" d="m206 98 1 3c-1.11 2.2-1.11 2.2-2.75 4.69-4.71 7.52-6.73 14.6-8.25 23.31-1.87-3.16-2.36-5.34-2-9 2.44-7.72 6.19-16.19 12-22"/><path fill="#243337" d="m221 231 5 1-1 9-4 1v4h-2c-.56-1.94-.56-1.94-1-4l1-1c.39-1.68.74-3.37 1.06-5.06.18-.92.36-1.84.54-2.79.13-.71.26-1.42.4-2.15"/><path fill="#F8A40F" d="M489 209h1l2 17c-4-1-4-1-5.24-2.73-.88-2.64-.96-4.75-.88-7.52 0-.45 0-.45.05-2.7.02-.68.05-1.35.07-2.05h3z"/><path fill="#F5B031" d="m97 78 2 1-1 2 4 1v2h-2v3h-9l-1 3-5 1c3.8-4.56 7.75-8.85 12-13"/><path fill="#EDDEC7" d="M205 406c6.67 3.33 13.33 6.67 20 10l-1 3c-.78-.52-1.57-1.03-2.38-1.56-.86-.48-1.73-.95-2.62-1.44-.33.17-.33.17-2 1-3-2-3-2-5-4-2.32-.4-4.66-.74-7-1z"/><path fill="#8D5F39" d="M286 337c3 2 3 2 5 4l1-2h2l1-2h2c-.58 3.35-1.59 4.94-4.06 7.25-.28.26-.28.26-1.66 1.58-.42.38-.85.77-1.28 1.17l-3-1v-2h-2l-1 2z"/><path fill="#232E30" d="M234 225c4 3.49 5.63 5.65 6 11-.56-.14-1.11-.29-1.69-.44-2.42-.59-4.86-1.08-7.31-1.56-.93-3.01-1.04-3.87 0-7z"/><path fill="#886047" d="m258 317 21 1c-3.75 3.75-5.18 3.83-10.31 4.31-4.62-.39-6.84-1.8-10.69-4.31z"/><path fill="#5F3C29" d="M248 205c3.84 1.46 5.15 3.39 7 7l1 3-11-3v-5z"/><path fill="#202525" d="M278 260c3.97 4.57 6.45 10.23 7.62 16.12-.93 4.29-3.58 6.82-6.62 9.88l-1-2c.5-.85.99-1.69 1.5-2.56 2.98-6.83.2-14.44-1.5-21.44"/><path fill="#7B5135" d="M163 119c5.76-.35 10.04-.34 15 3 2.19 2.5 2.19 2.5 4 5 .98 1.02 1.97 2.03 3 3-2.67 1.33-4.17.67-7 0v-3c-4.34-3.8-9.46-5.73-15-7z"/><path fill="#F5A91F" d="M447 115c3.65 3.35 6.33 6.29 8 11-.81 2.88-.81 2.88-2 5l-2-1 1-7-5 2c-1.6-3.12-2.19-4.39-1.12-7.81.37-.72.74-1.45 1.12-2.19"/><path fill="#F3A71D" d="m33 171 3 2c-.31 1.96-.62 3.92-.94 5.88-.08.54-.08.54-.52 3.3C34 185 34 185 33 187c-2.56.62-2.56.62-5 1 3.08-11.52 3.08-11.52 5-17"/><path fill="#EFA31B" d="M298 80h7l-1 6h6v1c-3.5.8-6.71 1.12-10.3 1.1-.98-.01-1.95-.01-2.96-.01l-3.05-.03c-1.03 0-2.06-.01-3.11-.01-2.53-.01-5.05-.03-7.58-.05v-1l18-1-4-4z"/><path fill="#EFB656" d="M18 238h1c.06 1.05.12 2.1.18 3.18.09 1.37.17 2.75.26 4.13l.12 2.09c.19 3.07.46 5.67 1.44 8.6-.31 1.34-.65 2.67-1 4-.08 1.88-.11 3.76-.1 5.64.01 1.07.01 2.14.01 3.24l.03 3.37c0 1.13.01 2.25.01 3.41.01 2.78.03 5.56.05 8.34h-1c-.83-5.75-1.14-11.29-1.1-17.09 0-.84.01-1.67.01-2.53 0-2.62.01-5.25.03-7.88 0-1.79.01-3.59.01-5.38.01-4.38.03-8.75.05-13.12"/><path fill="#BDB39E" d="M220 228c-1.16 4.94-2.31 8.31-6 12h-3c-.81-1.62-.81-1.62-1-4 5.76-8 5.76-8 10-8"/><path fill="#F0A014" d="M144 172h1l1 7 5-5-2 12-5-1v-3h-2z"/><path fill="#96663D" d="m227 314 1 2c-1.31 2.62-1.31 2.62-3 5h-2v2h-2l1 6-5-4c.19-2.88.19-2.88 1-6 2.31-1.19 2.31-1.19 5-2 1.36-.96 2.71-1.95 4-3"/><path fill="#C49C72" d="m295 217 2 1c-.94 3.15-1.7 4.75-4.25 6.88-3.36 1.37-5.28 1.01-8.75.12l-1 2v-9c.6.47 1.2.95 1.81 1.44C287 221 287 221 290 222z"/><path fill="#CA8962" d="M219 410c5.57.6 10.49 1.99 15.75 3.88.75.25 1.51.51 2.29.77q1.08.39 2.19.78c.66.23 1.31.46 1.98.69 2.03 1 3.28 2.21 4.79 3.88-7.73-1.44-14.72-4.06-22-7-.48-.19-.48-.19-2.89-1.16L219 411z"/><path fill="#F5A81B" d="M32 335h3v2l3 1 1 2 3 2-5 6c-2.71-4.06-5-8.05-5-13"/><path fill="#95653C" d="m233 323 3 2c.19 2.62.19 2.62 0 5l-4 2v-2h-3l2 7-7-5 1-4v3h3l1-6c.33.5.33.5 2 3z"/><path fill="#1E2425" d="M194 171c1 3 1 3 .29 4.8-4.24 6.76-9.97 12.75-17.29 16.2l-2-1c.71-.55 1.43-1.09 2.16-1.65 6.65-5.24 12.99-10.65 16.84-18.35"/><path fill="#292A28" d="M321 163c4.16 1.61 6.81 4.66 9.75 7.88.51.52 1.01 1.05 1.54 1.6 2.9 3.16 3.71 4.07 3.71 8.52l-2 1c-1.42-2.04-2.83-4.08-4.25-6.12l-1.2-1.73c-2.56-3.69-5.07-7.41-7.55-11.15"/><path fill="#5F3C29" d="M302 207c-.33.23-.33.23-2 1.38-.33.26-.33.26-2 1.62v2l-10 4c2.61-6.52 2.61-6.52 5-9 3.34-1.11 5.68-1.11 9 0"/><path fill="#926238" d="M213 150c-.72.64-1.44 1.28-2.19 1.94-5.24 5.25-8.14 11.93-9.81 19.06h-1c.46-7.22 1.68-14.04 6.46-19.75 2.17-1.76 3.83-1.47 6.54-1.25"/><path fill="#865731" d="M246 125h3q.06 3 0 6l-1 1c-.04 1.67-.04 3.33 0 5v3c-5-5.75-5-5.75-5-8h-2c1.07-2.14 2.32-3.32 4-5z"/><path fill="#98673E" d="m249 292 1 2h2v2c-4.79 1.63-8.06 2.21-13 1 .75-2.44.75-2.44 2-5 2.86-1.34 5.08-1.11 8 0"/><path fill="#A9774A" d="m280 290 5 1c1.12 5.75 1.12 5.75 0 8-3.69-.5-5.6-1.1-8-4 1-2 1-2 3-3z"/><path fill="#CA865F" d="M235 211c2.94.62 5.88 1.24 8.81 1.88.84.17 1.67.34 2.53.52.8.18 1.6.35 2.43.53l2.24.48C253 215 253 215 256 217l-2 4c-.79-.41-1.57-.82-2.38-1.24-5.47-2.81-10.61-5.39-16.62-6.76z"/><path fill="#EDC393" d="M314 209h5c-.33.5-.33.5-2 3l4 2-3 4-7-1c1.88-5.75 1.88-5.75 3-8"/><path fill="#2A2824" d="M208 99c.7 1.74.7 1.74 1 4-1.33 2.04-1.33 2.04-3.25 4.19-4.71 5.7-6.58 11.56-7.75 18.81h-1c-.87-10.03 4.2-18.17 10-26z"/><path fill="#BBB29F" d="M310 226c6.31.92 9.92 2 14 7l-1 2c-.72-.47-1.44-.95-2.19-1.44-2.7-1.5-4.77-2.13-7.81-2.56l-1 2z"/><path fill="#E9BE8C" d="m231 399 4 1h-2c1.39 2.78 3.16 2.98 6 4-.33.17-.33.17-2 1l-1 3-2-4h-3l3 3-1 3h-3v-2l-4-1c1.29-1.38 2.63-2.71 4-4h2z"/><path fill="#F1B74A" d="M293 21c7.95.45 15.33 1.87 23 4v1h-16l-1-2h-6z"/><path fill="#F6A516" d="M55 374c2.25 2.05 3 3.01 4 6-.94 2.19-.94 2.19-2 4l4-1 1 3-5 1c-.84-1.29-1.67-2.58-2.5-3.88-.46-.71-.93-1.43-1.41-2.17C52 379 52 379 52 377c1.5-1.62 1.5-1.62 3-3"/><path fill="#A37246" d="M229 315c.69 2.49 1 4.38 1 7h2v6l-3 1-1 2h-2c.08-.77.17-1.54.25-2.34l.31-3.04c.11-.99.21-1.99.32-3.02.12-2.6.12-2.6-.88-4.6z"/><path fill="#CB835B" d="M175 261h2l4 8c-8.49-.49-8.49-.49-11.06-3.06-.16-.32-.16-.32-.94-1.94h5z"/><path fill="#9F6D42" d="M353 150c2.3 2.3 2.76 3.85 3.69 6.94.27.87.54 1.75.82 2.65C358 162 358 162 357 165l-1-6-4 1c-2-3-2-3-1.75-6.12.12-.48.12-.48.75-2.88z"/><path fill="#B8744F" d="M162 233c1.68.29 3.34.62 5 1l-1 3h-3l-1 6-4 1v-5h2c.14-.8.29-1.61.44-2.44C161 234 161 234 162 233"/><path fill="#23231D" d="M251 221v2l2 1c-3.17 0-4.28-.49-7-1.94-7.99-4.22-16.27-3.61-25-2.06 7.13-7.13 22.03-2.99 30 1"/><path fill="#DEB384" d="M233 211h2v2l7 1v2c2 1.62 2 1.62 4 3-.84-.16-1.68-.33-2.54-.5-3.67-.53-7.13-.6-10.84-.56-1.24.01-2.49.02-3.77.02-.94.02-1.88.03-2.85.04v-2l8-1z"/><path fill="#E7BD8A" d="M289 365c1.14 3.4.84 5.77.06 9.25-.19.89-.39 1.78-.59 2.7-.15.68-.31 1.35-.47 2.05l-3-1 2-1c-.66-.6-1.32-1.2-2-1.81-2-2.19-2-2.19-2-5.19 1.82-1.92 3.89-3.38 6-5"/><path fill="#F7AC29" d="m479 332 2 1-3 10-3-1c-2.19.44-2.19.44-4 1 .96-1.46 1.91-2.92 2.88-4.38l1.61-2.46C477 334 477 334 479 332"/><path fill="#242623" d="M181 233c2.05 3.08 2.74 5.31 3.62 8.88.27 1.02.53 2.05.79 3.11.54 2.77.7 5.2.59 8.01-2.05-3.08-3.36-6.01-4.75-9.44-.23-.56-.23-.56-1.42-3.43-.83-3.13-.83-3.13.03-5.54.19-.26.19-.26 1.14-1.59"/><path fill="#B98555" d="M346 135c6.31 2.8 9.68 6.55 12.88 12.62.3.58.3.58 1.86 3.48.42.96.83 1.91 1.26 2.9l-1 2c-1.86-2.32-3.29-4.55-4.69-7.19-2.31-4.18-5.46-7.5-8.7-10.99C346 136 346 136 346 135"/><path fill="#F5B338" d="M50 136c1.25 2.49.78 3.41 0 6l2 1c-3.65 5.04-3.65 5.04-6 7h-3c1.76-4.97 4.39-9.43 7-14"/><path fill="#F5B133" d="M67 400c.99.17.99.17 6 1l-1 3 3 1v3l5-2-2 7c-4.22-3.97-7.61-8.31-11-13"/><path fill="#A37145" d="m291 289 3 1-1 3-2-1 3 5c-3.05.98-4.95.98-8 0l-1-5c.8-.12 1.61-.25 2.44-.38.84-.2 1.69-.41 2.56-.62z"/><path fill="#A57348" d="M298 289c3.69.26 5.79.86 8.88 2.94 2.99 4.31 2.57 7.96 2.12 13.06l-2-1c-.39-2.06-.51-4.09-.66-6.19-.11-.6-.22-1.19-.34-1.81l-2-1-2-3c-2.12-.69-2.12-.69-4-1l-1 2z"/><path fill="#E0B381" d="m262 285 4 2v3l2 2-1 3-7-1c.17-.76.33-1.53.5-2.31.5-2.69.5-2.69.5-5.69z"/><path fill="#F4A10E" d="m20 278 3 1c.69 2.06.69 2.06 1 4h-2c.07.77.14 1.55.22 2.34.53 5.92.89 11.72.78 17.66h-1c-1.7-8.42-2.25-16.42-2-25"/><path fill="#F8AB21" d="M375 53c3.94-.37 5.57-.3 8.88 2l2.12 2-6 2-1-2-1 2h-2l-1 2z"/><path fill="#F3B541" d="M342 34c2.09.76 4.17 1.54 6.25 2.31 1.16.43 2.32.86 3.52 1.3 2.82 1.22 4.9 2.42 7.23 4.39-.33.16-.33.16-2 1-2.62-.94-2.62-.94-5-2l-2 2-1-3c-2-1-2-1-5-1-2-3-2-3-2-5"/><path fill="#EBC190" d="M297 391c1.12 5.62 1.12 5.62 0 9h-2v-4h-2l-1 2v-4h-2v-2c2.46-1.23 4.28-1.07 7-1"/><path fill="#1A2021" d="M306 220c5.8-.36 9.64.74 15 3l-1 4h-6l-1-4-7-2z"/><path fill="#2A2C29" d="m297 299 2 1-1 3c-7.02 3.39-14.33 4.13-22 4v-1c1.18-.25 2.36-.51 3.58-.77 1.56-.35 3.11-.69 4.67-1.04.78-.17 1.55-.33 2.36-.5 4.1-.93 7.23-1.73 10.39-4.69"/><path fill="#2E2F2B" d="m334 242 1 3h4c.7 1.26 1.38 2.54 2.06 3.81.39.71.77 1.42 1.16 2.15C343 253 343 253 342 256c-.45-.97-.91-1.94-1.38-2.94C339 250 339 250 337 249l-1 3c-1.56-1.62-1.56-1.62-3-4 .31-3.25.31-3.25 1-6"/><path fill="#F5A512" d="M84 91v3l1 3 7 1v-2l3 1h-2v2h-2l-1 2c-.95-.19-1.9-.37-2.88-.56C84 100 84 100 82 101l-2-3-2-1z"/><path fill="#69412B" d="M310 142c5.72 1.85 11.36 3.93 17 6v1c-6.11.37-10.64.13-16-3-.94-2.19-.94-2.19-1-4"/><path fill="#242B2B" d="M390 418c4.58 2 6.09 4.47 8 9l-4 1-6-9z"/><path fill="#C3855F" d="M292 406v3c-4.57 4.56-11.06 8.52-17 11l-2-1c1.04-.69 2.07-1.37 3.14-2.08l4.11-2.73c.34-.23.34-.23 2.07-1.37 3.29-2.19 6.55-4.39 9.68-6.82"/><path fill="#E5BB88" d="m342 258 4 2-4 9-2-1v-2l-2-1c2.88-5.88 2.88-5.88 4-7"/><path fill="#CE825A" d="M291.688 216.375c.76.21 1.53.41 2.31.62-1.37 3.17-1.99 4-5 6-2.19-.37-2.19-.37-4-1 .31-1.87.31-1.87 1-4 3-2 3-2 5.69-1.62"/><path fill="#F7B032" d="m474 345 2 3c-.9 2.7-.9 2.7-2.38 5.69-.48.99-.96 1.99-1.46 3.01-.38.76-.76 1.52-1.16 2.3l-3-1c.65-3.5 2.12-5.99 4-9 .68-1.33 1.35-2.66 2-4"/><path fill="#DEB07E" d="M288 284h3v2h2v2l4 1-1 3c-.56-.39-1.11-.78-1.69-1.19-.38-.13-.38-.13-2.31-.81-2.62 1.44-2.62 1.44-5 3l-2-1v-2c.64-.27 1.28-.54 1.94-.81C289 288 289 288 290 285z"/><path fill="#EDC492" d="M157 248c2.23 2.23 2.69 3.66 3.62 6.62.27.82.53 1.64.79 2.48.2.63.39 1.25.59 1.9l-4 1-3-10h2z"/><path fill="#C38058" d="M337 249c3 1 3 1 4.75 4.44.21.59.21.59 1.25 3.56l-1 2h-2l-1-2-3 1z"/><path fill="#2B2D2A" d="m195 185 2 1c-.5 1.05-.99 2.1-1.5 3.19-1.33 3.06-1.81 5.43-1.5 8.81l-4 2c.51-4.93 1.09-9.38 3-14z"/><path fill="#DAA376" d="M327 172c3.64 3.43 6.36 6.8 9 11l-1 2c-2.87-.57-3.86-.86-6-3-.38-2.33-.71-4.66-1-7z"/><path fill="#F7AF2F" d="M484 305h5c-.28 1.58-.58 3.17-.88 4.75l-.49 2.67c-.6 2.45-1.41 4.39-2.63 6.58-1.15-9.41-1.15-9.41-1-14"/><path fill="#274049" d="m296 231 4 2-1 8h-4v-5l-2-1 2-1z"/><path fill="#F4AE30" d="M20 221c1.52 1.05 1.52 1.05 3 3 .07 3.36.07 3.36-.31 7.19-.12 1.27-.24 2.54-.37 3.85-.1.98-.21 1.95-.32 2.96h-2c-1.55-3.1-.83-6.26-.56-9.62.05-.71.1-1.42.16-2.15.13-1.74.26-3.49.4-5.23"/><path fill="#E4B785" d="M197 178c1.51 1.96 2.89 3.78 4 6l2-2 1 4c-1.81 1.06-1.81 1.06-4 2l-3-1c-.84-3.38-1.11-5.67 0-9"/><path fill="#F5AD2A" d="m77 98 2 3-2 2c.45.41.91.83 1.38 1.25 1.68 1.81 2.61 3.5 3.62 5.75l-2 2c-1.5-1.25-1.5-1.25-3-3v-4h-5z"/><path fill="#BAB8B2" d="M168 366h2l-.06 3.56c-.01 3.91.42 7.58 1.06 11.44-2.64-1.32-3.02-2.66-4.25-5.31-.38-.78-.75-1.56-1.14-2.37-.61-2.32-.61-2.32.22-4.55C167 367 167 367 168 366"/><path fill="#90633C" d="M189 271c.82.17.82.17 5 1-.06 1.63-.15 3.25-.25 4.88-.05.9-.09 1.8-.14 2.74-.2.78-.4 1.57-.61 2.38l-4 2z"/><path fill="#1C2324" d="M333 249c.5.33.5.33 3 2 .39 4.24.32 7.37-2 11l-2-1z"/><path fill="#F5AA26" d="M486 197c1.88 3.26 2.67 6.24 3 10l-2 2v-2l-3 1c-1.38-4.44-.07-7 2-11"/><path fill="#F5AE2D" d="m41 357 3 1 1 3c.31-.1.31-.1 1.88-.62.35-.07.35-.07 2.12-.38l2 2c-.99.82-.99.82-6 5-.67-1.29-1.34-2.58-2-3.88-.37-.71-.74-1.43-1.12-2.17C41 359 41 359 41 357"/><path fill="#1A2020" d="M169 276c1.17.95 2.34 1.91 3.5 2.88.32.26.32.26 1.97 1.61.25.25.25.25 1.53 1.51v2l-3 1-7-7z"/><path fill="#E2B887" d="M193 193c1.38 1.29 2.71 2.63 4 4v2h-3l1 7h-5c.11-.34.11-.34.66-2.08.27-.9.55-1.8.84-2.73.28-.9.56-1.79.84-2.71.66-2.48.66-2.48.66-5.48"/><path fill="#F6B131" d="M403 69c1.34.93 2.67 1.87 4 2.81l2.25 1.58c.58.53 1.15 1.06 1.75 1.61v3l-1-2c-.45.5-.91.99-1.38 1.5C407 79 407 79 405 79v-6h-2z"/><path fill="#F6B133" d="m422 419 2 1h2c-.25 1.88-.25 1.88-1 4-1.32.7-2.65 1.37-4 2l-1 3-3-2 3-1-.12-2.38C420 421 420 421 422 419"/><path fill="#885B35" d="M214 311h1l1 6 2-1-1 8-6-4 2-3c.39-1.99.73-3.99 1-6"/><path fill="#69412A" d="m306 123 2.12.66c5.85 1.71 10.8 2.68 16.88 2.34l-1 2c-6.62 1.81-10.17.4-16.09-2.87-.63-.37-1.26-.75-1.91-1.13z"/><path fill="#F5AB22" d="M443 109c1.38 1.29 2.71 2.63 4 4v2h-2l-1 3-6-4z"/><path fill="#A16D3F" d="m332 106 7 1c-2.51 2.75-4.38 3.88-8.19 4.17-.78 0-1.57.01-2.37.02-.4 0-.4 0-2.38.04C324 111 324 111 322 109l9 1z"/><path fill="#1E201B" d="m137 380 2 1-2 2h-3l-1 4-8 1v-2q2.925-1.545 5.88-3.06c1.09-.57 2.18-1.14 3.3-1.73.47-.2.47-.2 2.82-1.21"/><path fill="#41351F" d="M190 316h1l1 8h1v8h-2v5h-1z"/><path fill="#AA784C" d="m213 302 3 1 1 9-4-4v2h-3l1-6h2z"/><path fill="#2A2E2C" d="m192 291 2 1c.37 5.5.37 5.5-1.38 7.88C191 301 191 301 189 301c.11-1.48.24-2.96.38-4.44.06-.82.13-1.64.21-2.49.13-.69.27-1.37.41-2.07z"/><path fill="#C88059" d="m279 151 10 5v2c-3.31.31-3.31.31-7 0-1.96-2.4-3-3.88-3-7"/><path fill="#F4AC27" d="m316 26 7 1v1h-5v2h4v2h-9z"/><path fill="#B3B2AC" d="M329 387c3.44.81 3.44.81 7 2l1 3c-2.91.81-4.46 1.22-7.31.06-.56-.35-1.12-.7-1.69-1.06z"/><path fill="#EEC492" d="m239 297-1 4c-.99-.17-.99-.17-6-1v3l-4-1c2.55-5.64 5.03-5.11 11-5"/><path fill="#F5B23A" d="M476 166c1.9 2.86 2.69 4.93 3.62 8.19.27.9.53 1.8.79 2.73.2.69.39 1.37.59 2.08l-2 2-1-7h-4c.33-.58.66-1.16 1-1.75 1-2.25 1-2.25 1-6.25"/><path fill="#C4815B" d="M240 147v4h-12c3.53-3.53 7.11-4.28 12-4"/><path fill="#20231E" d="m154 142 2 3h2c-1.5 4.21-4.29 5.74-8 8l1.44-4.38c.26-.81.53-1.62.81-2.46C153 144 153 144 154 142"/><path fill="#2D2A26" d="M264 130c3.57 1.45 5.19 3.2 7.31 6.38.53.77 1.07 1.54 1.62 2.33 1.07 2.29 1.07 2.29.74 4.58-.22.56-.44 1.13-.67 1.71-1.13-1.75-2.25-3.5-3.38-5.25-.62-.97-1.25-1.95-1.89-2.95-1.38-2.24-2.61-4.43-3.73-6.8"/><path fill="#684029" d="M325 135c.28.07.28.07 1.69.4 5.1 1.18 10.11 2.03 15.31 2.6-2 2-2 2-5.12 2.38-4.69-.46-7.87-2.04-11.88-4.38z"/><path fill="#B8966E" d="M212 219c2.16.02 2.16.02 4.62.38.41.05.41.05 2.48.33.63.1 1.25.19 1.9.29-2.55 2.1-4.63 3.78-8 4-1.75-1.44-1.75-1.44-3-3z"/><path fill="#633E2A" d="M344 202c.5.33.5.33 3 2l-2 10-2-1q-.045-2.19-.06-4.38c-.01-.81-.03-1.62-.04-2.46.1-2.16.1-2.16 1.1-4.16"/><path fill="#F4B034" d="M59 122c1 4 1 4 1 6h-2v3l-3 1c-.33.5-.33.5-2 3l-2-1z"/><path fill="#F2AE31" d="M323 28c4.19.6 8.01 1.57 12 3-.64.12-1.28.25-1.94.38-.68.2-1.36.41-2.06.62l-1 2-2-2-3 1v-2h-2z"/><path fill="#1E221F" d="M151.375 374.313c.54.23 1.07.45 1.62.69-.33.99-.65 1.98-1 3-3.37.62-3.37.62-7 1-.65-.66-1.31-1.32-2-2 5.42-3.08 5.42-3.08 8.38-2.69"/><path fill="#DDB584" d="m207 241 6 5c-3.23 2.15-4.28 2.2-8 2v-6z"/><path fill="#E5BB89" d="M244 220c1.16.66 1.16.66 7 4v4c-2.75-.38-3.82-.81-5.75-2.88C244 223 244 223 244 220"/><path fill="#322E27" d="M327 199c5.78 3.09 8.39 7.02 11 13v2l-3-1c-.27-.7-.54-1.4-.81-2.12-1.43-3.45-3.44-5.62-5.95-8.33C327 201 327 201 327 199"/><path fill="#292E2C" d="M317 376c1.88 1.56 1.88 1.56 3 3-4.29 1.26-6.88.63-11-1v-2c2.94-1.47 4.87-.77 8 0"/><path fill="#F5AF2F" d="M40 347c2.51 1.26 2.87 2.5 4 5l-3 1-1 4-3-8z"/><path fill="#E9BB87" d="M293 297c7.75-.12 7.75-.12 10 1l-1 6-3-1-1-3c-2.56-1.19-2.56-1.19-5-2z"/><path fill="#413529" d="M260 154h3l3 8c-2.38-.31-2.38-.31-5-1-2-3-2-3-1.62-5.19.2-.6.41-1.19.62-1.81"/><path fill="#BF874F" d="m332 106-1 4-8-1 1-3c2.86-1.43 4.93-.6 8 0"/><path fill="#1F2525" d="m288 411 1 4c-2.31 2.06-2.31 2.06-5 4l-3-1c1.33-4 3.5-4.84 7-7"/><path fill="#E4B482" d="M297 322h3l-3 12c-.12-.64-.25-1.28-.38-1.94-.2-.68-.41-1.36-.62-2.06l-2-1h2c-.1-.39-.1-.39-.62-2.38-.13-.86-.25-1.73-.38-2.62z"/><path fill="#1B2223" d="M293 236h2c.2.84.41 1.69.62 2.55.27 1.1.54 2.2.82 3.33.26 1.09.53 2.18.81 3.3C298 248 298 248 299 250c-2.7-.99-3.81-1.66-5.25-4.19-.89-3.35-.89-6.35-.75-9.81"/><path fill="#2A2A26" d="M342 234h4c1.26 2.52 1.1 4.31 1.06 7.12-.01.92-.02 1.83-.02 2.76-.02.7-.03 1.4-.04 2.12h-1v-9l-6 1z"/><path fill="#27414B" d="m221 231 5 1-1 4-5 1z"/><path fill="#7E5735" d="m155 160 2 1c-1.45 3.39-3.41 5.41-6 8l-1 3 2 1h-3l-1-2c2.04-3.94 4.23-7.53 7-11"/><path fill="#F1A51C" d="M335 100h2l1 2c2.32.41 4.66.74 7 1v1q-3.375.075-6.75.12c-1.25.03-2.51.05-3.8.08-3.18-.18-4.82-.51-7.45-2.2l2.88.12C333 102 333 102 335 100"/><path fill="#2A2923" d="M314.375 97.25c2.63.75 5.11 1.67 7.62 2.75-.66.66-1.31 1.32-2 2-3.97-.35-7.35-1.39-11-3 3-2 3-2 5.38-1.75"/><path fill="#F6AC29" d="M59 388c4.61 1.46 4.61 1.46 6.38 3.94C66 394 66 394 65 397c-3.08-2.77-4.69-5.06-6-9"/><path fill="#9A6940" d="M248 338c3 1 3 1 4.69 4.06.43.97.86 1.94 1.31 2.94l-3 1v-3l-6 2z"/><path fill="#895D37" d="m241 340 1 2 4-2-1 6 3 1c-.33.17-.33.17-2 1a96 96 0 0 1-6-3z"/><path fill="#7F5431" d="M199 301c2 2 2 2 2.44 4.06.09.32.09.32.56 1.94l3 1 1 6c-2.91-2.22-4.95-3.93-7-7-.12-3.19-.12-3.19 0-6"/><path fill="#282C2A" d="M154 250c2.76 2.76 2.58 5.21 3 9l-3 1c-1.12-3.31-1.12-3.31-2-7z"/><path fill="#E4BE90" d="M343 227c1.21 2.43 1 4.33 1 7a89 89 0 0 1-4 4l-2 2c.26-1.61.53-3.21.81-4.81.15-.9.3-1.79.46-2.71.78-2.66 1.62-3.74 3.73-5.48"/><path fill="#EFC695" d="M242 219c1.88 1.5 1.88 1.5 3 3l-2 2c-.35-.15-.35-.15-2.12-.94-2.97-1.09-5.76-1.62-8.88-2.06 3.4-2.09 6.04-2.42 10-2"/><path fill="#F3AE2F" d="m33 171 3 2-3 9-3-2z"/><path fill="#1C2120" d="M165 132c-.54 3.79-2.08 5.59-5 8h-3c1.52-3.54 3.75-8 8-8"/><path fill="#BF8750" d="m310 99 7 2v4c-3.69-.5-5.6-1.1-8-4z"/><path fill="#2F2A1F" d="M210 92c0 3.78-1 4.46-3.5 7.19-.65.71-1.3 1.43-1.97 2.17-.5.54-1.01 1.08-1.53 1.64l-3-1a615 615 0 0 1 3.31-3.88c.62-.71 1.23-1.43 1.87-2.17C207 94 207 94 210 92"/><path fill="#F7BB4C" d="M425 89c1.13.91 2.26 1.83 3.38 2.75.62.51 1.25 1.02 1.89 1.55 1.81 1.78 2.73 3.38 3.73 5.7h-3c-4-4.34-4-4.34-4-7h-2z"/><path fill="#F5AF30" d="M194 27v3c-4.02.84-7.02 1.05-11 0 3.28-3.28 6.51-3.12 11-3"/><path fill="#2D312F" d="m296 405 2 1-8 9-2-2 1-3 2.38-.25c2.62-.75 2.62-.75 3.93-2.81.23-.64.46-1.28.69-1.94"/><path fill="#9A6940" d="M232 291h3c-.19.62-.37 1.24-.56 1.88C234 295 234 295 235 297l-5 1-2-5h3z"/><path fill="#AA794E" d="m197 285 3 2c.69 3.62.69 3.62 1 7l-4 2c-.6-2.76-1-5.16-1-8l-1-2z"/><path fill="#B59670" d="M319.625 218.938c.41.1.41.1 2.48.59.31.08.31.08 1.9.47-.33.66-.67 1.32-1 2l-10-1v-2c2.63-1.31 3.8-.75 6.62-.06"/><path fill="#895933" d="M175 177h2v3h-2c-.5 1.81-.5 1.81-3 11h-1l1-11h2z"/><path fill="#F4B43F" d="M42 151c1.11 3.34.92 4.67 0 8-.33.5-.33.5-2 3h-2v3l-2-1z"/><path fill="#2E2D28" d="M353 147c3.51 2.87 6.85 5.73 10 9l-1 2h-3c-1.06-1.63-2.05-3.3-3-5-.56-.54-1.11-1.07-1.69-1.62C353 150 353 150 353 147"/><path fill="#2D2C25" d="M186 102h2l1 3c-1.44 2.69-1.44 2.69-3 5l-4-1z"/><path fill="#F7B843" d="M417 81c1.15.95 2.29 1.91 3.44 2.88.64.53 1.27 1.06 1.93 1.61C424 87 424 87 425 89l-7-1z"/><path fill="#F5B236" d="m120 60 2 4-3 1c-1.69 1.56-1.69 1.56-3 3v-2l-4 1c2.52-2.61 5.05-4.89 8-7"/><path fill="#E2AF7E" d="M291 399c.99.17.99.17 6 1-.81 2.44-.81 2.44-2 5l-3 1z"/><path fill="#2A2D2A" d="M341 388c3.69.88 3.69.88 7 2-1.19 1.56-1.19 1.56-3 3-3.34-.24-4.61-.61-7-3z"/><path fill="#2B2F2D" d="M122 387h9c-2.28 2.28-4.13 2.97-7.12 4.12-.92.36-1.83.71-2.76 1.08-.7.26-1.4.53-2.12.8v-2h2z"/><path fill="#F5AF31" d="M32 335h3v2l3 1v2h-2l-1 3c-2.57-2.57-2.54-4.48-3-8"/><path fill="#EBBD88" d="M309 304c4.88 1.75 4.88 1.75 6 4-.33.5-.33.5-2 3h-3z"/><path fill="#8E6039" d="m225 294 4 2c-.81 2.44-.81 2.44-2 5l-3 1c-.04-2.33-.04-4.67 0-7z"/><path fill="#A67449" d="m188 267 2 2 2-2c1.5 1.38 1.5 1.38 3 3v2l-4-1v7h-1v-7h-2z"/><path fill="#A06948" d="M165 242h2l-2 5h-2v3h-2l-1-5 5-1z"/><path fill="#262B29" d="m325 233 3 1c.37 5.42.37 5.42-1.5 8.38-.5.53-.99 1.07-1.5 1.62l-2-1 1-2v-3.56c0-3.44 0-3.44 1-4.44"/><path fill="#F6AC29" d="M492 229h1c.08 4.16-.02 7.95-1 12h-3l-1-5 3-2c.69-2.62.69-2.62 1-5"/><path fill="#F2B038" d="M25 197h1c.14 1.11.29 2.23.44 3.38C27 204 27 204 28 206c-1.37 1.5-1.37 1.5-3 3h-2c1-8.57 1-8.57 2-12"/><path fill="#F3B445" d="M481 180c2.11 3.17 2.76 5.51 3.62 9.19.27 1.08.53 2.17.79 3.29.2.83.39 1.66.59 2.52h-2c-1.92-4.98-2.55-9.73-3-15"/><path fill="#F4AC28" d="M359 42c5.75 1.75 5.75 1.75 8 4l-3 2c-2.69-.88-2.69-.88-5-2z"/><path fill="#1A2122" d="M332 386c2.69.18 5.33.62 8 1v3c-6.75-.75-6.75-.75-9-3z"/><path fill="#A7764B" d="M229 296c1.26 3.79.33 5.33-1 9v2l-4-1c.75-4.75.75-4.75 3-7z"/><path fill="#EEA118" d="M156 226c-.5 1.81-.5 1.81-3 11-2-3.99-2.2-5.7-2-10 3-1 3-1 5-1"/><path fill="#ECC290" d="M306 214v3l-8 1c.81-1.94.81-1.94 2-4 3-1 3-1 6 0"/><path fill="#ECA018" d="m351 200 2 3 2-2 1 3-1 2h-4v3h-2z"/><path fill="#A47245" d="M196 116c2 3 2 3 1.76 5.48-.21.89-.42 1.79-.64 2.71-.2.9-.4 1.8-.61 2.73-.09.34-.09.34-.51 2.08-1.73-3.24-2.37-5.29-2-9 1-2.31 1-2.31 2-4"/><path fill="#684029" d="m225 111 2 1-7 8-3-1c4.62-5.75 4.62-5.75 8-8"/><path fill="#DEA779" d="m231 399 4 1h-2c1.39 2.78 3.16 2.98 6 4-.33.17-.33.17-2 1l-1 3c-.84-1.12-1.67-2.25-2.5-3.38q-.69-.93-1.41-1.89C231 401 231 401 231 399"/><path fill="#F5AF31" d="m29 320 4 5-1 2-2-1-1 3-2-8z"/><path fill="#E5B883" d="M201 290h6v3c-.39.14-.39.14-2.38.88C202 295 202 295 200 297z"/><path fill="#C17E57" d="m171 240 3 1c1.19 3.06 1.19 3.06 2 6l-5 1v-3h2v-2l-3-1z"/><path fill="#EBDCC1" d="M231 229c.66.16.66.16 4 1l-1 5-4-2z"/><path fill="#F5B138" d="M489 209h1l1 10-1-3h-3l-1-5h3z"/><path fill="#E4B484" d="M334 201c.66.16.66.16 4 1v3h-2v2l2 1-2 2c-3.08-4.43-3.08-4.43-2.69-7.31.23-.56.46-1.12.69-1.69"/><path fill="#E49B1C" d="M144 172h1c.14 1.09.29 2.19.44 3.31C146 179 146 179 147 182l-3 3v-3h-2z"/><path fill="#E69D1E" d="M157 147c0 3.4-.52 4.07-2.5 6.69-.46.62-.93 1.24-1.41 1.88-.36.47-.72.95-1.09 1.43l-2-4z"/><path fill="#191F1F" d="M326 228c1.5 1.06 1.5 1.06 3 3 .19 3.69.19 3.69 0 7l-6-6h3z"/><path fill="#F6B642" d="M455 126c2.96 3.47 5.08 6.87 7 11l-3-1v-2l-3-1z"/><path fill="#F5AE2D" d="m391 60 6 4-4 4-2-1z"/><path fill="#DBB484" d="m285 391 2 1v6h2v2h-2l-1 2c-2.12-7.62-2.12-7.62-1-11"/><path fill="#E4D7C2" d="M179 382c2.5 2.31 2.5 2.31 5 5v3l-3-1 1-2h-3l-2-4z"/><path fill="#191E1D" d="m300 381 4 1v7l-1-2-3-1z"/><path fill="#191F20" d="M289 370h2c1.47 3.81.43 6.29-1 10l-2-1z"/><path fill="#262C2B" d="m174 363 1 2 3 1v2h-2l-2 4c-1.12-6.75-1.12-6.75 0-9"/><path fill="#2D2D27" d="m188 347 3 1-1 6-1-2h-2v2l-2-1z"/><path fill="#845834" d="m224 328 1 3 5 1 1 5c-1.18-.73-2.34-1.49-3.5-2.25-.32-.21-.32-.21-1.97-1.27-.5-.49-1.01-.98-1.53-1.48z"/><path fill="#9B6C42" d="M320 304c.69 1.81.69 1.81 1 4-1.19 1.75-1.19 1.75-3 3h-4v-3c.62-.1 1.24-.21 1.88-.31C318 307 318 307 320 304"/><path fill="#AC794D" d="M205 294c.1.6.21 1.2.31 1.81.78 2.47 1.76 3.51 3.69 5.19h-2l-1 3-2-1c-.75-2.88-.75-2.88-1-6z"/><path fill="#F8E8CB" d="m311 247 5 1-1 3h-7z"/><path fill="#2F2D27" d="M181 233c1.95 2.92 2.45 4.63 3 8h-2l-1 2c-2.22-5.42-2.22-5.42-1.12-8.38.37-.53.74-1.07 1.12-1.62"/><path fill="#BFB5A3" d="m246 232 4 3-1 5-5-5z"/><path fill="#F4E4C9" d="M304 229c2.06.44 2.06.44 4 1l-1 4h-3c-.56-1.94-.56-1.94-1-4z"/><path fill="#1C201E" d="M164.688 230.75c.76.08 1.53.16 2.31.25l1 3h-6l-2 5c-.69-1.75-.69-1.75-1-4 1.54-3.08 2.2-3.93 5.69-4.25"/><path fill="#E5B785" d="M267 339h6c-.31 1.94-.31 1.94-1 4l-3 1-2 2z"/><path fill="#F4BB53" d="M20 288h2c.85 5.08 1.09 9.85 1 15h-1z"/><path fill="#B98758" d="M277 293h5c.62 1.88.62 1.88 1 4l-2 2a89 89 0 0 1-4-4z"/><path fill="#C7845C" d="M334 270h1v12l-3 1z"/><path fill="#EEC594" d="M178 238h2l2 6h-5l-1-3h2z"/><path fill="#E3B283" d="M320 165c3 1.81 3 1.81 6 4v3l-3-3c-.33.5-.33.5-2 3l-2-1z"/><path fill="#96653E" d="M355 145c3 3.33 3 3.33 3 6l-3-1-1-2-2 2v-3l-3-1c3-1 3-1 6-1"/><path fill="#F2B137" d="M301 24q2.625-.075 5.25-.12c.97-.03 1.95-.05 2.95-.08 2.82.2 4.41.75 6.8 2.2h-15z"/><path fill="#F7BB4E" d="m408 435 4 1-8 6 1-4 3-1z"/><path fill="#E5D7C1" d="M218 413c1.16.5 1.16.5 7 3l-1 3c-4.88-2.62-4.88-2.62-6-6"/><path fill="#F6AE2C" d="m54 381 4 1-1 2 4-1 1 3-5 1z"/><path fill="#2D302C" d="m296 364 8 3-2 2c-2.62-.38-2.62-.38-5-1z"/><path fill="#F7AB25" d="M479 326c.66.17.66.17 4 1l-1 5-2-1v-2l-2-1zm-4 4h2l-1 2z"/><path fill="#CE845C" d="m341 248 4 1v4l-2 2z"/><path fill="#457788" d="m226 241 2 4h-7v-3c3-1 3-1 5-1"/><path fill="#E9BE8A" d="M348 240h2v7l-3 1z"/><path fill="#D7BB95" d="M211 235c1.68.29 3.34.62 5 1l-2 4h-3c-.56-1.94-.56-1.94-1-4z"/><path fill="#302F29" d="M156 139c.5.33.5.33 3 2l-1 2 2 2-2 2v-2l-3 1z"/><path fill="#1A2021" d="m184 109 2 2c-1.13 3.4-2.13 4.05-5 6 .26-2.34.59-4.68 1-7z"/><path fill="#F6B332" d="M71 105c1.56 1.25 1.56 1.25 3 3-.31 2.19-.31 2.19-1 4h-2l-1-2-2-1z"/><path fill="#DF9615" d="m193 90 3 1c-1.39 3.37-2.98 4.99-6 7 0-3.58 1.09-5.05 3-8"/><path fill="#21231F" d="m203 86 1 2c-.78 1.73-.78 1.73-1.94 3.62-.68 1.12-1.36 2.23-2.06 3.38-1.04-3.13-1.15-4.02 0-7z"/><path fill="#F7B743" d="M368 46c1.15.49 1.15.49 7 3-3 2-3 2-7 2z"/><path fill="#343732" d="m81.563 409.938 2.44.06v2c-2.5 1.63-2.5 1.63-5 3-.56-1.94-.56-1.94-1-4 1-1 1-1 3.56-1.06"/><path fill="#B8B6B0" d="M345.945 393.559c.72.29 1.44.58 2.18.88.72.29 1.45.57 2.2.87.55.23 1.1.46 1.67.69v1l-10-1v-2c2-1 2-1 3.95-.44"/><path fill="#1A1F1E" d="M302 368c1.94.25 1.94.25 4 1l2 3-4 1-3-4z"/><path fill="#192020" d="M190 341h2v6c-.33.17-.33.17-2 1l-2-2z"/><path fill="#A27044" d="M294 330h2v7h-4z"/><path fill="#895C37" d="m315 309 3 1-1 4h-3c0-3 0-3 1-5"/><path fill="#B98658" d="M261 290c0 3 0 3-1.25 4.75-1.75 1.25-1.75 1.25-3.94.94-.6-.23-1.19-.46-1.81-.69 4.75-3.88 4.75-3.88 7-5"/><path fill="#EDA118" d="m353 226 1 2h2v2h-3l-1 4-2-7z"/><path fill="#F4A822" d="M490 219c2 3 2 3 2 7l-4-1v-5z"/><path fill="#C47D56" d="m289 216 3 1c-2.36 2.53-3.66 3.89-7 5 .31-1.88.31-1.88 1-4z"/><path fill="#D5AE82" d="m308 210 2 1c0 2 0 2-1.5 3.62L307 216l4 1h-5l-1-5z"/><path fill="#5F3B28" d="M272 154c3.26.35 4.02 1.02 6.25 3.56.58.81 1.15 1.61 1.75 2.44-2.97-1.12-5.33-2.22-8-4z"/><path fill="#F4AD2E" d="m447 115 4 4-3 2-3-1z"/><path fill="#865832" d="m190 115 1 2 3 1-2 7c-2-2-2-2-2.2-3.95.07-2.01.13-4.03.2-6.05"/><path fill="#F3AE2D" d="M350 39c6.75.75 6.75.75 9 3-.33.16-.33.16-2 1-2.62-.94-2.62-.94-5-2l-2 2z"/><path fill="#191F20" d="M216 410c2.44.19 2.44.19 5 1 1.31 2.06 1.31 2.06 2 4-5.75-1.75-5.75-1.75-8-4z"/><path fill="#E5B686" d="M224 382h1c.25 2.31.25 2.31 0 5-2 1.81-2 1.81-4 3l-2-2h2c.31-.8.62-1.61.94-2.44C223 383 223 383 224 382"/><path fill="#282B2A" d="M300 377h3l1 5h-5l-1-3h2z"/><path fill="#181E1E" d="M175 363h6v3c-4 0-4 0-6-1z"/><path fill="#232827" d="m281 278 3 3c-.99.82-.99.82-6 5 1.88-5.75 1.88-5.75 3-8"/><path fill="#F8E8CB" d="M292 246h3c1.69 2.5 1.69 2.5 3 5-.99-.16-.99-.16-6-1z"/><path fill="#1C2527" d="M153 244c2 3 2 3 1.75 5.06C154 251 154 251 152 253c-.1-6.15-.1-6.15 0-8z"/><path fill="#242827" d="m336 231 3 1v5l-4-1z"/><path fill="#836449" d="M245 219c2.17.51 4 1 6 2v2l2 1c-3.6 0-5.09-.96-8-3z"/><path fill="#EEC594" d="M242 215c4.75.88 4.75.88 7 2l-1 3-7-3z"/><path fill="#D5966B" d="m256 159 7 6c-.33.16-.33.16-2 1l-6-4z"/><path fill="#6C432A" d="m187 145 3 1-1.94 2.31C186 151 186 151 185 154h-2c1.06-3.4 2.01-6.01 4-9"/><path fill="#996539" d="M276 136c1.15.95 2.29 1.91 3.44 2.88.64.53 1.27 1.06 1.93 1.61C283 142 283 142 284 144c-2.95-1.37-5.57-2.83-8-5z"/><path fill="#68422A" d="M178 126c3.27.56 4.83 1.5 7 4-2.67 1.33-4.17.67-7 0z"/><path fill="#8A6A50" d="M163 119h9l1 4-10-3z"/><path fill="#F7C056" d="M84 91c0 2.84-.4 5.24-1 8l-5-1z"/><path fill="#D89421" d="m211 91 2 1c-1.31 3.44-1.31 3.44-3 7l-3 1c.65-3.49 2.1-6.03 4-9"/><path fill="#F5AA20" d="M411 77c2.47 1.15 4.05 2.05 6 4-3 1-3 1-5.19.06-.6-.35-1.19-.7-1.81-1.06z"/><path fill="#CF8A63" d="M282 414c-1 3-1 3-3.94 4.75-.5.21-.5.21-3.06 1.25l-2-1c1.12-.84 2.25-1.67 3.38-2.5q.93-.69 1.89-1.41C280 414 280 414 282 414"/><path fill="#232B2D" d="m294 368 4 2-1 3-4-1z"/><path fill="#B17E52" d="M229 315c1.03 2.79 1.05 3.87.06 6.75-.35.74-.7 1.49-1.06 2.25-.14-.62-.29-1.24-.44-1.88C227 320 227 320 226 318z"/><path fill="#2A2B26" d="M322 307c.69 1.81.69 1.81 1 4-1.44 1.75-1.44 1.75-3 3-.69-1.81-.69-1.81-1-4 1.44-1.75 1.44-1.75 3-3"/><path fill="#8E6039" d="M298 293c4.68 1.48 4.68 1.48 6.31 4.12.23.62.46 1.24.69 1.88-4.68-1.48-4.68-1.48-6.31-4.12-.23-.62-.46-1.24-.69-1.88"/><path fill="#457888" d="M295 241h4l2 4-5 1z"/><path fill="#DFB685" d="m156 234 3 1-1 5-3-1z"/><path fill="#EDC390" d="m295 217 2 1c-1 3-1 3-4 5l-3-1z"/><path fill="#413117" d="M361 168h1v11l-3 1v-3h2z"/><path fill="#E6A027" d="m360 160 5 3c-1.07 2.13-2.29 3.37-4 5z"/><path fill="#B17D4C" d="m154 157 2 3-5 7-1-2c.78-1.95.78-1.95 1.94-4.12.19-.37.19-.37 1.15-2.2.3-.55.6-1.11.91-1.68"/><path fill="#875934" d="M277 153c2.25 2.69 3.88 4.65 5 8h-2c-2.19-2.31-2.19-2.31-4-5z"/><path fill="#28251E" d="M172 140c-2.67 1.78-5.03 2.88-8 4l-2-3c3.38-1.04 6.48-1.08 10-1"/><path fill="#F7AF2C" d="M460 138c1.94.31 1.94.31 4 1l1 3-3 2c-2-3-2-3-2-6"/><path fill="#2E2B24" d="m266.125 85.938 2.88 1.06v2c-3.38-.54-5.09-1.05-8-3 2-1 2-1 5.12-.06"/><path fill="#F3B137" d="M110 69c-1.05 2.62-1.65 3.79-4.12 5.25-.62.25-1.24.5-1.88.75l-1-2c4.75-4 4.75-4 7-4"/><path fill="#F5AD29" d="M146 46v2h-2l-2 4-1-5c2-1 2-1 5-1"/></svg>