<?xml version="1.0" encoding="iso-8859-1"?>
<!-- Generator: Adobe Illustrator 19.0.0, SVG Export Plug-In . SVG Version: 6.00 Build 0)  -->
<svg version="1.1" id="Layer_1" xmlns="http://www.w3.org/2000/svg" xmlns:xlink="http://www.w3.org/1999/xlink" x="0px" y="0px"
	 viewBox="0 0 512 512" style="enable-background:new 0 0 512 512;" xml:space="preserve">
<g>
	<path style="fill:#ECF0F1;" d="M275.505,25.198l-19.5-16.366l-19.509,16.366c-85.707,71.715-100.414,180.339-44.129,264.73
		c0.044,0.062,0.088,0.124,0.132,0.185c12.835,19.015,19.368,40.174,19.368,62.005v9.816h88.276v-9.816
		c0-21.831,6.541-42.99,19.368-62.005c0.035-0.062,0.079-0.115,0.115-0.168C375.927,205.555,361.22,96.922,275.505,25.198"/>
	<g>
		<path style="fill:#E64C3C;" d="M282.483,114.759c0,14.627-11.855,26.483-26.483,26.483c-14.627,0-26.483-11.855-26.483-26.483
			S241.373,88.276,256,88.276C270.627,88.276,282.483,100.131,282.483,114.759"/>
		<path style="fill:#E64C3C;" d="M282.483,220.69c0,14.627-11.855,26.483-26.483,26.483c-14.627,0-26.483-11.855-26.483-26.483
			s11.855-26.483,26.483-26.483C270.627,194.207,282.483,206.062,282.483,220.69"/>
	</g>
	<g>
		<path style="fill:#95A5A5;" d="M423.724,397.241c-24.276,0-44.138,19.862-44.138,44.138h88.276
			C467.862,417.103,448,397.241,423.724,397.241"/>
		<path style="fill:#95A5A5;" d="M97.103,397.241c-24.276,0-44.138,19.862-44.138,44.138h88.276
			C141.241,417.103,121.379,397.241,97.103,397.241"/>
	</g>
	<path style="fill:#BDC3C7;" d="M459.034,388.414c-29.131,0-52.966,23.835-52.966,52.966c0-19.421-4.961-44.138-35.31-44.138
		c-19.421,0-35.31,15.89-35.31,35.31c0,19.421-17.876,35.31-39.724,35.31c-21.848,0-39.724-15.89-39.724-35.31
		c0,19.421-17.876,35.31-39.724,35.31s-39.724-15.89-39.724-35.31c0-19.421-15.89-35.31-35.31-35.31
		c-25.653,0-35.31,24.717-35.31,44.138c0-29.131-23.834-52.966-52.966-52.966S0,412.248,0,441.379V512h512v-70.621
		C512,412.248,488.165,388.414,459.034,388.414"/>
	<g>
		<path style="fill:#D25627;" d="M220.69,423.724c-4.873,0-8.828-3.955-8.828-8.828v-26.483c0-4.873,3.955-8.828,8.828-8.828
			c4.873,0,8.828,3.955,8.828,8.828v26.483C229.517,419.769,225.562,423.724,220.69,423.724"/>
		<path style="fill:#D25627;" d="M291.31,423.724c-4.873,0-8.828-3.955-8.828-8.828v-26.483c0-4.873,3.955-8.828,8.828-8.828
			c4.873,0,8.828,3.955,8.828,8.828v26.483C300.138,419.769,296.183,423.724,291.31,423.724"/>
	</g>
	<path style="fill:#E57E25;" d="M256,406.069c-4.873,0-8.828-3.955-8.828-8.828v-8.828c0-4.873,3.955-8.828,8.828-8.828
		s8.828,3.955,8.828,8.828v8.828C264.828,402.114,260.873,406.069,256,406.069"/>
	<g>
		<path style="fill:#BDC3C7;" d="M353.103,176.069l-0.265,0.538c0.989,34.383-7.486,68.882-25.512,100.59l55.623,38.938
			c6.02,4.211,14.292-0.097,14.292-7.442v-35.522C397.241,203.655,353.103,176.069,353.103,176.069"/>
		<path style="fill:#BDC3C7;" d="M159.164,176.604l-0.265-0.538c0,0-44.138,27.586-44.138,97.103V308.7
			c0,7.345,8.271,11.652,14.283,7.433l55.631-38.93C166.65,245.494,158.175,210.996,159.164,176.604"/>
		<path style="fill:#BDC3C7;" d="M309.22,308.966H202.786c5.976,13.771,9.075,28.301,9.075,43.149v9.816h88.276v-9.807
			C300.136,337.258,303.243,322.737,309.22,308.966"/>
	</g>
	<g>
		<path style="fill:#4482C3;" d="M397.241,114.759c-2.26,0-4.52-0.865-6.241-2.586c-3.452-3.452-3.452-9.031,0-12.482l35.31-35.31
			c3.452-3.452,9.031-3.452,12.482,0c3.452,3.452,3.452,9.031,0,12.482l-35.31,35.31
			C401.761,113.894,399.501,114.759,397.241,114.759"/>
		<path style="fill:#4482C3;" d="M432.552,114.759c-2.26,0-4.52-0.865-6.241-2.586L391,76.862c-3.452-3.452-3.452-9.031,0-12.482
			c3.452-3.452,9.031-3.452,12.482,0l35.31,35.31c3.452,3.452,3.452,9.031,0,12.482
			C437.071,113.894,434.812,114.759,432.552,114.759"/>
	</g>
	<path style="fill:#F0C419;" d="M503.172,158.897c0,4.873-3.946,8.828-8.828,8.828c-4.882,0-8.828-3.955-8.828-8.828
		c0-4.873,3.946-8.828,8.828-8.828C499.227,150.069,503.172,154.024,503.172,158.897"/>
	<path style="fill:#E57E25;" d="M70.621,273.655c0,4.873-3.955,8.828-8.828,8.828s-8.828-3.955-8.828-8.828
		c0-4.873,3.955-8.828,8.828-8.828S70.621,268.782,70.621,273.655"/>
	<path style="fill:#F0C419;" d="M35.31,0c0,19.518-15.793,35.31-35.31,35.31c19.518,0,35.31,15.793,35.31,35.31
		c0-19.518,15.793-35.31,35.31-35.31C51.103,35.31,35.31,19.518,35.31,0"/>
</g>
<g>
</g>
<g>
</g>
<g>
</g>
<g>
</g>
<g>
</g>
<g>
</g>
<g>
</g>
<g>
</g>
<g>
</g>
<g>
</g>
<g>
</g>
<g>
</g>
<g>
</g>
<g>
</g>
<g>
</g>
</svg>
