<?xml version="1.0" encoding="iso-8859-1"?>
<!-- Generator: Adobe Illustrator 19.0.0, SVG Export Plug-In . SVG Version: 6.00 Build 0)  -->
<svg version="1.1" id="Layer_1" xmlns="http://www.w3.org/2000/svg" xmlns:xlink="http://www.w3.org/1999/xlink" x="0px" y="0px"
	 viewBox="0 0 512 512" style="enable-background:new 0 0 512 512;" xml:space="preserve">
<g>
	<g>
		<g>
			<path d="M187.733,341.257c-13.107,0-24.789,7.646-30.438,18.927c-3.985-1.229-8.107-1.86-12.228-1.86
				c-23.526,0-42.667,19.14-42.667,42.667c0,4.71,3.823,8.533,8.533,8.533s8.533-3.823,8.533-8.533c0-14.114,11.486-25.6,25.6-25.6
				c4.523,0,8.917,1.254,13.056,3.729c2.458,1.468,5.478,1.604,8.055,0.367c2.577-1.229,4.369-3.669,4.77-6.502
				c1.186-8.354,8.405-14.66,16.785-14.66c8.815,0,16.068,6.682,16.87,15.531c0.324,3.627,2.91,6.639,6.434,7.518
				c3.533,0.879,7.228-0.572,9.216-3.627c7.919-12.16,21.291-19.422,35.746-19.422c14.456,0,27.827,7.262,35.746,19.422
				c1.988,3.055,5.692,4.506,9.216,3.627c3.524-0.879,6.11-3.891,6.434-7.518c0.802-8.849,8.055-15.531,16.87-15.531
				c8.38,0,15.599,6.306,16.785,14.66c0.401,2.833,2.193,5.274,4.77,6.502c2.586,1.237,5.606,1.101,8.055-0.367
				c4.139-2.475,8.533-3.729,13.056-3.729c14.114,0,25.6,11.486,25.6,25.6c0,4.71,3.823,8.533,8.533,8.533s8.533-3.823,8.533-8.533
				c0-23.526-19.14-42.667-42.667-42.667c-4.122,0-8.243,0.631-12.228,1.86c-5.649-11.281-17.331-18.927-30.438-18.927
				c-11.861,0-22.306,5.99-28.399,15.266c-10.82-9.737-24.926-15.266-39.868-15.266c-14.942,0-29.047,5.53-39.868,15.266
				C210.039,347.247,199.595,341.257,187.733,341.257z"/>
			<path d="M290.133,136.457c0-18.825-15.309-34.133-34.133-34.133c-18.825,0-34.133,15.309-34.133,34.133
				S237.175,170.59,256,170.59C274.825,170.59,290.133,155.281,290.133,136.457z M256,153.523c-9.412,0-17.067-7.654-17.067-17.067
				c0-9.412,7.654-17.067,17.067-17.067c9.412,0,17.067,7.654,17.067,17.067C273.067,145.869,265.412,153.523,256,153.523z"/>
			<path d="M247.467,247.39v68.267c0,4.71,3.823,8.533,8.533,8.533s8.533-3.823,8.533-8.533V247.39c0-4.71-3.823-8.533-8.533-8.533
				S247.467,242.679,247.467,247.39z"/>
			<path d="M25.6,443.657c4.71,0,8.533-3.823,8.533-8.533v-256c0-12.442,13.158-25.6,25.6-25.6h102.4
				c4.71,0,8.533-3.823,8.533-8.533s-3.823-8.533-8.533-8.533h-102.4c-21.931,0-42.667,20.736-42.667,42.667v256
				C17.067,439.834,20.89,443.657,25.6,443.657z"/>
			<path d="M503.467,426.59h-8.533V179.123c0-21.931-20.736-42.667-42.667-42.667h-102.4c-4.71,0-8.533,3.823-8.533,8.533
				s3.823,8.533,8.533,8.533h102.4c12.442,0,25.6,13.158,25.6,25.6v256c0,4.71,3.823,8.533,8.533,8.533h8.533v25.6
				c0,12.442-13.158,25.6-25.6,25.6H42.667c-9.583,0-19.584-7.799-23.68-17.067h450.347c4.71,0,8.533-3.823,8.533-8.533
				s-3.823-8.533-8.533-8.533H8.533c-4.71,0-8.533,3.823-8.533,8.533c0,21.931,20.736,42.667,42.667,42.667h426.667
				c21.931,0,42.667-20.736,42.667-42.667v-34.133C512,430.413,508.177,426.59,503.467,426.59z"/>
			<path d="M153.6,298.59c0,4.71,3.823,8.533,8.533,8.533h25.6v8.533c0,4.71,3.823,8.533,8.533,8.533s8.533-3.823,8.533-8.533
				v-8.533h17.067c4.71,0,8.533-3.823,8.533-8.533c0-4.71-3.823-8.533-8.533-8.533h-51.2v-8.533c0-25.148,8.61-35.686,17.724-46.848
				c8.064-9.882,16.41-20.104,16.41-38.485v-85.333c0-29.79,14.02-44.595,15.087-45.739L256,21.786l36.591,43.861
				c0.589,0.614,14.609,15.42,14.609,45.21v85.333c0,18.381,8.346,28.604,16.41,38.485c9.114,11.162,17.724,21.7,17.724,46.848
				v8.533h-51.2c-4.71,0-8.533,3.823-8.533,8.533c0,4.71,3.823,8.533,8.533,8.533H307.2v8.533c0,4.71,3.823,8.533,8.533,8.533
				s8.533-3.823,8.533-8.533v-8.533h25.6c4.71,0,8.533-3.823,8.533-8.533v-17.067c0-31.232-11.955-45.875-21.564-57.643
				c-7.296-8.934-12.57-15.394-12.57-27.691v-85.333c0-37.239-18.765-56.431-19.046-56.661l-42.667-51.2
				c-3.243-3.891-9.865-3.891-13.107,0L207.3,53.623c-0.802,0.802-19.567,19.994-19.567,57.233v85.333
				c0,12.297-5.274,18.756-12.57,27.691c-9.609,11.768-21.564,26.411-21.564,57.643V298.59z"/>
			<path d="M170.667,179.123c0-4.71-3.823-8.533-8.533-8.533h-76.8c-11.682,0-34.133,10.812-34.133,25.6v238.933
				c0,4.71,3.823,8.533,8.533,8.533h392.533c4.71,0,8.533-3.823,8.533-8.533V196.19c0-13.158-12.442-25.6-25.6-25.6h-85.333
				c-4.71,0-8.533,3.823-8.533,8.533c0,4.71,3.823,8.533,8.533,8.533H435.2c3.831,0,8.533,4.702,8.533,8.533v230.4H68.267
				l-0.051-229.965c1.05-3.004,11.631-8.969,17.118-8.969h76.8C166.844,187.657,170.667,183.834,170.667,179.123z"/>
		</g>
	</g>
</g>
<g>
</g>
<g>
</g>
<g>
</g>
<g>
</g>
<g>
</g>
<g>
</g>
<g>
</g>
<g>
</g>
<g>
</g>
<g>
</g>
<g>
</g>
<g>
</g>
<g>
</g>
<g>
</g>
<g>
</g>
</svg>
