<?xml version="1.0" encoding="iso-8859-1"?>
<!-- Generator: Adobe Illustrator 19.0.0, SVG Export Plug-In . SVG Version: 6.00 Build 0)  -->
<svg version="1.1" id="Layer_1" xmlns="http://www.w3.org/2000/svg" xmlns:xlink="http://www.w3.org/1999/xlink" x="0px" y="0px"
	 viewBox="0 0 511.997 511.997" style="enable-background:new 0 0 511.997 511.997;" xml:space="preserve">
<circle style="fill:#FF5B62;" cx="255.999" cy="255.999" r="255.999"/>
<ellipse style="fill:#ED4C54;" cx="255.999" cy="421.644" rx="182.283" ry="14.369"/>
<path style="fill:#666666;" d="M65.981,67.222h380.036c12.486,0,22.702,10.217,22.702,22.702v234.105H43.279V89.923
	C43.279,77.437,53.494,67.222,65.981,67.222z"/>
<path style="fill:#21D0C3;" d="M58.695,308.616h394.607V89.925c0-3.977-3.31-7.287-7.285-7.287H65.983
	c-3.977,0-7.285,3.31-7.285,7.287v218.692H58.695z"/>
<path style="fill:#FFFFFF;" d="M468.717,324.031v24.826c0,12.489-11.26,22.702-25.025,22.702H68.304
	c-13.765,0-25.025-10.213-25.025-22.702v-24.826H468.717z"/>
<path style="fill:#ECF0F1;" d="M85.934,176.249c36.089,0,66.573,23.982,76.395,56.876c16.088,7.261,27.871,22.375,30.466,40.452
	c2.835-0.682,5.797-1.045,8.842-1.045c8.758,0,16.818,2.985,23.217,7.994c2.011-12.698,13.009-22.408,26.273-22.408
	c1.665,0,3.294,0.155,4.872,0.447c1.579-0.293,3.208-0.447,4.872-0.447c13.264,0,24.262,9.71,26.273,22.408
	c6.398-5.009,14.46-7.994,23.216-7.994c3.045,0,6.004,0.364,8.842,1.045c2.595-18.078,14.378-33.192,30.466-40.452
	c9.825-32.894,40.307-56.876,76.395-56.876c9.567,0,18.739,1.687,27.239,4.776v127.59H272.7l0.002-0.062l-0.124,0.062h-33.154
	l-0.124-0.062l0.002,0.062H58.698v-127.59c8.499-3.089,17.671-4.776,27.239-4.776H85.934z"/>
<g>
	<path style="fill:#FFFFFF;" d="M85.934,180.948c36.089,0,66.573,23.982,76.395,56.876c16.088,7.261,27.871,22.375,30.466,40.452
		c2.835-0.682,5.797-1.045,8.842-1.045c8.758,0,16.818,2.985,23.217,7.994c2.011-12.698,13.009-22.408,26.273-22.408
		c1.665,0,3.294,0.155,4.872,0.447c1.579-0.293,3.208-0.447,4.872-0.447c13.264,0,24.262,9.71,26.273,22.408
		c6.398-5.009,14.46-7.994,23.216-7.994c3.045,0,6.004,0.364,8.842,1.045c2.595-18.078,14.378-33.192,30.466-40.452
		c9.825-32.894,40.307-56.876,76.395-56.876c9.567,0,18.739,1.687,27.239,4.776v122.891H58.698V185.723
		c8.499-3.089,17.671-4.776,27.239-4.776H85.934z"/>
	<path style="fill:#FFFFFF;" d="M298.115,132.393c0.684-0.735-3.662,12.467-7.049,17.401c-3.384,4.934-7.928,9.823-7.928,9.823
		l1.162-5.384l-12.489,11.756l0.228-4.637c0,0-5.128,3.382-11.181,6.28c-5.828,2.787-5.962,2.664-3.607-3.351
		c2.445-6.251,5.446-11.61,5.446-11.61l-4.608,0.567l10.813-13.311l-5.285,1.552c0,0,4.542-4.888,9.219-8.625
		c4.674-3.738,17.522-9.033,16.841-8.299l4.055,4.101l4.385,3.744v-0.005H298.115z"/>
</g>
<g>
	<path style="fill:#FF5B62;" d="M329.725,111.136l6.608,24.399l-31.022,35.081l1.902-42.163l22.514-17.317
		C329.727,111.136,329.725,111.136,329.725,111.136z"/>
	<path style="fill:#FF5B62;" d="M308.57,91.471l-24.815-4.809l-32.724,33.5l41.912-4.976l15.625-23.718L308.57,91.471z"/>
</g>
<path style="fill:#FAD24D;" d="M306.026,135.021l-9.776-9.086l-9.774-9.084C305.289,94.842,329.205-4.231,413.172,0.144
	C427.618,81.752,325.018,116.736,306.026,135.021z"/>
<path style="fill:#FF5B62;" d="M412.185,34.882c-12.467-5.45-26.573-18.851-32.548-30.446c9.983-3.308,21.096-4.943,33.533-4.295
	C415.41,12.805,414.83,24.347,412.185,34.882L412.185,34.882z"/>
<rect x="279.952" y="124.25" transform="matrix(-0.7325 -0.6808 0.6808 -0.7325 420.3539 423.2355)" style="fill:#666666;" width="26.762" height="9.556"/>
<circle style="fill:#FFFFFF;" cx="369.836" cy="48.678" r="15.051"/>
<circle style="fill:#21D0C3;" cx="369.836" cy="48.677" r="12.356"/>
<g>
	<path style="fill:#FFFFFF;" d="M251.544,148.715c-15.456,11.141-42.49,88.405,19.048,129.319c0,0-47.001-54.731-2.633-107.246
		C260.136,174.17,245.62,186.967,251.544,148.715z"/>
	<circle style="fill:#FFFFFF;" cx="217.903" cy="257.406" r="8.967"/>
	<circle style="fill:#FFFFFF;" cx="258.653" cy="240.549" r="2.855"/>
	<circle style="fill:#FFFFFF;" cx="223.871" cy="231.097" r="3.898"/>
	<circle style="fill:#FFFFFF;" cx="291.788" cy="264.522" r="3.867"/>
</g>
<circle style="fill:#B6B6B8;" cx="255.999" cy="346.801" r="7.816"/>
<path style="fill:#C2C2C4;" d="M305.064,407.272l36.095,11.566H170.836l29.124-11.566V371.56h105.105v35.712H305.064z"/>
<path style="fill:#B0B0B0;" d="M305.064,407.272L199.959,371.56h105.105V407.272z"/>
<path style="fill:#ECF0F1;" d="M199.959,407.272h105.105l36.095,11.566v4.98H256h-85.164v-4.98L199.959,407.272z"/>
<g>
</g>
<g>
</g>
<g>
</g>
<g>
</g>
<g>
</g>
<g>
</g>
<g>
</g>
<g>
</g>
<g>
</g>
<g>
</g>
<g>
</g>
<g>
</g>
<g>
</g>
<g>
</g>
<g>
</g>
</svg>
